<?xml version="1.0" encoding="UTF-8"?>
<svg xmlns="http://www.w3.org/2000/svg" xmlns:xlink="http://www.w3.org/1999/xlink" viewBox="0 0 1500 500">
  <defs>
    <style>
      .cls-1, .cls-2, .cls-3, .cls-4, .cls-5 {
        fill: none;
      }

      .cls-6 {
        clip-path: url(#clippath);
      }

      .cls-7 {
        fill: url(#Degradado_sin_nombre_96);
      }

      .cls-7, .cls-8, .cls-9, .cls-10, .cls-11, .cls-12, .cls-13, .cls-14 {
        mix-blend-mode: screen;
      }

      .cls-8 {
        fill: url(#Degradado_sin_nombre_99);
      }

      .cls-8, .cls-9 {
        opacity: .6;
      }

      .cls-9 {
        fill: url(#Degradado_sin_nombre_99-2);
      }

      .cls-15 {
        fill: url(#Degradado_sin_nombre_101);
      }

      .cls-2 {
        stroke: url(#Degradado_sin_nombre_93-4);
        stroke-width: 1.65px;
      }

      .cls-2, .cls-3, .cls-4, .cls-5 {
        stroke-miterlimit: 10;
      }

      .cls-3 {
        stroke: url(#Degradado_sin_nombre_93);
      }

      .cls-3, .cls-4, .cls-5 {
        stroke-width: 1.71px;
      }

      .cls-4 {
        stroke: url(#Degradado_sin_nombre_93-2);
      }

      .cls-5 {
        stroke: url(#Degradado_sin_nombre_93-3);
      }

      .cls-16 {
        fill: url(#Degradado_sin_nombre_92);
      }

      .cls-17 {
        fill: url(#Degradado_sin_nombre_101-7);
      }

      .cls-18 {
        fill: url(#Degradado_sin_nombre_101-8);
      }

      .cls-19 {
        fill: url(#Degradado_sin_nombre_101-5);
      }

      .cls-20 {
        fill: url(#Degradado_sin_nombre_101-6);
      }

      .cls-21 {
        fill: url(#Degradado_sin_nombre_101-4);
      }

      .cls-22 {
        fill: url(#Degradado_sin_nombre_101-3);
      }

      .cls-23 {
        fill: url(#Degradado_sin_nombre_101-2);
      }

      .cls-24 {
        fill: url(#Degradado_sin_nombre_101-9);
      }

      .cls-25 {
        fill: url(#Degradado_sin_nombre_3);
      }

      .cls-26 {
        isolation: isolate;
      }

      .cls-27 {
        fill: url(#Degradado_sin_nombre_92-2);
      }

      .cls-28 {
        fill: url(#Degradado_sin_nombre_101-10);
      }

      .cls-29 {
        fill: url(#Degradado_sin_nombre_101-17);
      }

      .cls-30 {
        fill: url(#Degradado_sin_nombre_101-11);
      }

      .cls-31 {
        fill: url(#Degradado_sin_nombre_101-13);
      }

      .cls-32 {
        fill: url(#Degradado_sin_nombre_101-12);
      }

      .cls-33 {
        fill: url(#Degradado_sin_nombre_101-14);
      }

      .cls-34 {
        fill: url(#Degradado_sin_nombre_101-16);
      }

      .cls-35 {
        fill: url(#Degradado_sin_nombre_101-15);
      }

      .cls-10 {
        fill: url(#Degradado_sin_nombre_96-3);
      }

      .cls-11 {
        fill: url(#Degradado_sin_nombre_96-2);
      }

      .cls-12 {
        fill: url(#Degradado_sin_nombre_96-4);
      }

      .cls-13 {
        fill: url(#Degradado_sin_nombre_99-4);
      }

      .cls-14 {
        fill: url(#Degradado_sin_nombre_99-3);
      }
    </style>
    <linearGradient id="Degradado_sin_nombre_3" data-name="Degradado sin nombre 3" x1="591.9" y1="-82.46" x2="1054.14" y2="889.54" gradientUnits="userSpaceOnUse">
      <stop offset="0" stop-color="#2780ff"/>
      <stop offset="1" stop-color="#001ccf"/>
    </linearGradient>
    <clipPath id="clippath">
      <rect class="cls-1" width="1500" height="500"/>
    </clipPath>
    <linearGradient id="Degradado_sin_nombre_99" data-name="Degradado sin nombre 99" x1="107.48" y1="683.89" x2="107.48" y2="316.11" gradientTransform="translate(385.03 70.45) rotate(45)" gradientUnits="userSpaceOnUse">
      <stop offset="0" stop-color="#001ccf" stop-opacity="0"/>
      <stop offset="1" stop-color="#04f"/>
    </linearGradient>
    <linearGradient id="Degradado_sin_nombre_99-2" data-name="Degradado sin nombre 99" x1="1051.99" y1="-941.18" x2="1051.99" y2="-1308.95" gradientTransform="translate(2908.33 -51.67) rotate(-135)" xlink:href="#Degradado_sin_nombre_99"/>
    <linearGradient id="Degradado_sin_nombre_99-3" data-name="Degradado sin nombre 99" x1="95.97" y1="-30.44" x2="488.09" y2="-30.44" gradientTransform="translate(261.6 -322.47) rotate(90)" xlink:href="#Degradado_sin_nombre_99"/>
    <linearGradient id="Degradado_sin_nombre_99-4" data-name="Degradado sin nombre 99" x1="1063.12" y1="520.77" x2="1455.25" y2="520.77" gradientTransform="translate(738.41 1779.96) rotate(-90)" xlink:href="#Degradado_sin_nombre_99"/>
    <linearGradient id="Degradado_sin_nombre_93" data-name="Degradado sin nombre 93" x1="-157.48" y1="283.44" x2="514.85" y2="-433.93" gradientTransform="translate(-62.48 -50.19) rotate(52.01) scale(.96 .93) skewX(13.62)" gradientUnits="userSpaceOnUse">
      <stop offset="0" stop-color="#00cfc7" stop-opacity="0"/>
      <stop offset="1" stop-color="#00cfc7"/>
    </linearGradient>
    <linearGradient id="Degradado_sin_nombre_93-2" data-name="Degradado sin nombre 93" x1="-531.34" y1="1054.3" x2="140.99" y2="336.93" gradientTransform="translate(738.91 216.12) rotate(52.01) scale(.96 .93) skewX(13.62)" xlink:href="#Degradado_sin_nombre_93"/>
    <linearGradient id="Degradado_sin_nombre_93-3" data-name="Degradado sin nombre 93" x1="1323.6" y1="-29.63" x2="1995.93" y2="-747" gradientTransform="translate(252.97 -1062.01) rotate(52.01) scale(.96 .93) skewX(13.62)" xlink:href="#Degradado_sin_nombre_93"/>
    <linearGradient id="Degradado_sin_nombre_93-4" data-name="Degradado sin nombre 93" x1="1234.12" y1="659.24" x2="1906.41" y2="-58.08" gradientTransform="translate(638.37 -843.13) rotate(50.02) scale(.92 .91) skewX(9.9)" xlink:href="#Degradado_sin_nombre_93"/>
    <linearGradient id="Degradado_sin_nombre_96" data-name="Degradado sin nombre 96" x1="-67.33" y1="481.14" x2="126.14" y2="481.14" gradientUnits="userSpaceOnUse">
      <stop offset="0" stop-color="#04f" stop-opacity="0"/>
      <stop offset="1" stop-color="#04f"/>
    </linearGradient>
    <linearGradient id="Degradado_sin_nombre_96-2" data-name="Degradado sin nombre 96" x1="962.73" y1="12.16" x2="1156.21" y2="12.16" xlink:href="#Degradado_sin_nombre_96"/>
    <linearGradient id="Degradado_sin_nombre_96-3" data-name="Degradado sin nombre 96" x1="850.88" y1="744.92" x2="1044.36" y2="744.92" gradientTransform="translate(1410.86 1261.36) rotate(-180)" xlink:href="#Degradado_sin_nombre_96"/>
    <linearGradient id="Degradado_sin_nombre_96-4" data-name="Degradado sin nombre 96" x1="467.38" y1="744.92" x2="660.86" y2="744.92" gradientTransform="translate(1410.86 1261.36) rotate(-180)" xlink:href="#Degradado_sin_nombre_96"/>
    <linearGradient id="Degradado_sin_nombre_101" data-name="Degradado sin nombre 101" x1="1423.25" y1="971.51" x2="1923.52" y2="406.2" gradientTransform="translate(753.31 206.34) rotate(9.31) scale(.72 .23) skewX(-43.46)" gradientUnits="userSpaceOnUse">
      <stop offset="0" stop-color="#0fb"/>
      <stop offset="1" stop-color="#00cfc7"/>
    </linearGradient>
    <linearGradient id="Degradado_sin_nombre_101-2" data-name="Degradado sin nombre 101" x1="3098.45" y1="2646.72" x2="3598.73" y2="2081.4" gradientTransform="translate(706.48 120.2) rotate(4.44) scale(.71 .11) skewX(-44.65)" xlink:href="#Degradado_sin_nombre_101"/>
    <linearGradient id="Degradado_sin_nombre_101-3" data-name="Degradado sin nombre 101" x1="-4245.45" y1="-3836.3" x2="-3745.18" y2="-4401.61" gradientTransform="translate(72.53 992.63) rotate(9.31) scale(.72 .23) skewX(-43.46)" xlink:href="#Degradado_sin_nombre_101"/>
    <linearGradient id="Degradado_sin_nombre_101-4" data-name="Degradado sin nombre 101" x1="-8402.53" y1="-7993.37" x2="-7902.25" y2="-8558.69" gradientTransform="translate(25.7 906.48) rotate(4.44) scale(.71 .11) skewX(-44.65)" xlink:href="#Degradado_sin_nombre_101"/>
    <linearGradient id="Degradado_sin_nombre_101-5" data-name="Degradado sin nombre 101" x1="729.59" y1="565.73" x2="729.59" y2="525.17" gradientTransform="translate(286.54 948.01) rotate(-45) scale(1 -1)" xlink:href="#Degradado_sin_nombre_101"/>
    <linearGradient id="Degradado_sin_nombre_92" data-name="Degradado sin nombre 92" x1="2819.98" y1="352.59" x2="2819.98" y2="107.4" gradientTransform="translate(256.91 304.36) scale(.28 1)" gradientUnits="userSpaceOnUse">
      <stop offset="0" stop-color="#0084ff"/>
      <stop offset="1" stop-color="#00f1ff"/>
    </linearGradient>
    <linearGradient id="Degradado_sin_nombre_92-2" data-name="Degradado sin nombre 92" x1="2973.49" y1="280.99" x2="2973.49" y2="35.8" gradientTransform="translate(329.45 306.56) scale(.25 1)" xlink:href="#Degradado_sin_nombre_92"/>
    <linearGradient id="Degradado_sin_nombre_101-6" data-name="Degradado sin nombre 101" x1="355.18" y1="426.83" x2="388.47" y2="426.83" gradientTransform="matrix(1, 0, 0, 1, 0, 0)" xlink:href="#Degradado_sin_nombre_101"/>
    <linearGradient id="Degradado_sin_nombre_101-7" data-name="Degradado sin nombre 101" x1="370.83" y1="411.18" x2="404.12" y2="411.18" gradientTransform="matrix(1, 0, 0, 1, 0, 0)" xlink:href="#Degradado_sin_nombre_101"/>
    <linearGradient id="Degradado_sin_nombre_101-8" data-name="Degradado sin nombre 101" x1="386.48" y1="395.53" x2="419.77" y2="395.53" gradientTransform="matrix(1, 0, 0, 1, 0, 0)" xlink:href="#Degradado_sin_nombre_101"/>
    <linearGradient id="Degradado_sin_nombre_101-9" data-name="Degradado sin nombre 101" x1="1339.46" y1="204.16" x2="1288.05" y2="269.64" gradientTransform="matrix(1, 0, 0, 1, 0, 0)" xlink:href="#Degradado_sin_nombre_101"/>
    <linearGradient id="Degradado_sin_nombre_101-10" data-name="Degradado sin nombre 101" x1="180.48" y1="292.25" x2="227.81" y2="105.66" gradientTransform="matrix(1, 0, 0, 1, 0, 0)" xlink:href="#Degradado_sin_nombre_101"/>
    <linearGradient id="Degradado_sin_nombre_101-11" data-name="Degradado sin nombre 101" x1="189.2" y1="294.46" x2="236.52" y2="107.87" gradientTransform="matrix(1, 0, 0, 1, 0, 0)" xlink:href="#Degradado_sin_nombre_101"/>
    <linearGradient id="Degradado_sin_nombre_101-12" data-name="Degradado sin nombre 101" x1="197.91" y1="296.67" x2="245.24" y2="110.08" gradientTransform="matrix(1, 0, 0, 1, 0, 0)" xlink:href="#Degradado_sin_nombre_101"/>
    <linearGradient id="Degradado_sin_nombre_101-13" data-name="Degradado sin nombre 101" x1="1098.34" y1="140.16" x2="1145.66" y2="-46.43" gradientTransform="matrix(1, 0, 0, 1, 0, 0)" xlink:href="#Degradado_sin_nombre_101"/>
    <linearGradient id="Degradado_sin_nombre_101-14" data-name="Degradado sin nombre 101" x1="1107.05" y1="142.37" x2="1154.38" y2="-44.22" gradientTransform="matrix(1, 0, 0, 1, 0, 0)" xlink:href="#Degradado_sin_nombre_101"/>
    <linearGradient id="Degradado_sin_nombre_101-15" data-name="Degradado sin nombre 101" x1="1115.77" y1="144.58" x2="1163.09" y2="-42.01" gradientTransform="matrix(1, 0, 0, 1, 0, 0)" xlink:href="#Degradado_sin_nombre_101"/>
    <linearGradient id="Degradado_sin_nombre_101-16" data-name="Degradado sin nombre 101" x1="488.09" y1="64.69" x2="519.14" y2="64.69" gradientTransform="matrix(1, 0, 0, 1, 0, 0)" xlink:href="#Degradado_sin_nombre_101"/>
    <linearGradient id="Degradado_sin_nombre_101-17" data-name="Degradado sin nombre 101" x1="983.04" y1="426.7" x2="1014.08" y2="426.7" gradientTransform="matrix(1, 0, 0, 1, 0, 0)" xlink:href="#Degradado_sin_nombre_101"/>
  </defs>
  <g class="cls-26">
    <g id="BACKGROUND">
      <rect class="cls-25" width="1500" height="500"/>
    </g>
    <g id="OBJECTS">
      <g class="cls-6">
        <circle class="cls-8" cx="107.48" cy="500" r="183.89" transform="translate(-322.07 222.45) rotate(-45)"/>
        <circle class="cls-9" cx="1368.92" cy="0" r="183.89" transform="translate(400.95 967.97) rotate(-45)"/>
        <path class="cls-14" d="M488.92-28.52c-1.5-1.5-1.5-3.94,0-5.45,1.5-1.5,3.94-1.5,5.45,0s1.5,3.94,0,5.45-3.94,1.5-5.45,0Zm-8.34,13.79c1.5-1.5,1.5-3.94,0-5.45s-3.94-1.5-5.45,0c-1.5,1.5-1.5,3.94,0,5.45,1.5,1.5,3.94,1.5,5.45,0Zm-13.79,13.79c1.5-1.5,1.5-3.94,0-5.45s-3.94-1.5-5.45,0c-1.5,1.5-1.5,3.94,0,5.45,1.5,1.5,3.94,1.5,5.45,0Zm-13.79,13.79c1.5-1.5,1.5-3.94,0-5.45-1.5-1.5-3.94-1.5-5.45,0-1.5,1.5-1.5,3.94,0,5.45,1.5,1.5,3.94,1.5,5.45,0Zm-13.79,13.79c1.5-1.5,1.5-3.94,0-5.45-1.5-1.5-3.94-1.5-5.45,0-1.5,1.5-1.5,3.94,0,5.45,1.5,1.5,3.94,1.5,5.45,0Zm-13.79,13.79c1.5-1.5,1.5-3.94,0-5.45s-3.94-1.5-5.45,0c-1.5,1.5-1.5,3.94,0,5.45s3.94,1.5,5.45,0Zm-13.79,13.79c1.5-1.5,1.5-3.94,0-5.45-1.5-1.5-3.94-1.5-5.45,0s-1.5,3.94,0,5.45c1.5,1.5,3.94,1.5,5.45,0Zm-13.79,13.79c1.5-1.5,1.5-3.94,0-5.45-1.5-1.5-3.94-1.5-5.45,0-1.5,1.5-1.5,3.94,0,5.45s3.94,1.5,5.45,0Zm-13.79,13.79c1.5-1.5,1.5-3.94,0-5.45-1.5-1.5-3.94-1.5-5.45,0-1.5,1.5-1.5,3.94,0,5.45,1.5,1.5,3.94,1.5,5.45,0Zm-13.79,13.79c1.5-1.5,1.5-3.94,0-5.45-1.5-1.5-3.94-1.5-5.45,0-1.5,1.5-1.5,3.94,0,5.45s3.94,1.5,5.45,0Zm-13.79,13.79c1.5-1.5,1.5-3.94,0-5.45-1.5-1.5-3.94-1.5-5.45,0-1.5,1.5-1.5,3.94,0,5.45,1.5,1.5,3.94,1.5,5.45,0Zm-13.79,13.79c1.5-1.5,1.5-3.94,0-5.45-1.5-1.5-3.94-1.5-5.45,0-1.5,1.5-1.5,3.94,0,5.45,1.5,1.5,3.94,1.5,5.45,0Zm-13.79,13.79c1.5-1.5,1.5-3.94,0-5.45s-3.94-1.5-5.45,0c-1.5,1.5-1.5,3.94,0,5.45,1.5,1.5,3.94,1.5,5.45,0Zm-13.79,13.79c1.5-1.5,1.5-3.94,0-5.45s-3.94-1.5-5.45,0-1.5,3.94,0,5.45c1.5,1.5,3.94,1.5,5.45,0Zm-13.79,13.79c1.5-1.5,1.5-3.94,0-5.45-1.5-1.5-3.94-1.5-5.45,0-1.5,1.5-1.5,3.94,0,5.45s3.94,1.5,5.45,0ZM477.09-30.99c1.5-1.5,1.5-3.94,0-5.45-1.5-1.5-3.94-1.5-5.45,0s-1.5,3.94,0,5.45,3.94,1.5,5.45,0Zm-13.79,13.79c1.5-1.5,1.5-3.94,0-5.45-1.5-1.5-3.94-1.5-5.45,0-1.5,1.5-1.5,3.94,0,5.45,1.5,1.5,3.94,1.5,5.45,0Zm-13.79,13.79c1.5-1.5,1.5-3.94,0-5.45s-3.94-1.5-5.45,0c-1.5,1.5-1.5,3.94,0,5.45,1.5,1.5,3.94,1.5,5.45,0Zm-13.79,13.79c1.5-1.5,1.5-3.94,0-5.45-1.5-1.5-3.94-1.5-5.45,0s-1.5,3.94,0,5.45c1.5,1.5,3.94,1.5,5.45,0Zm-13.79,13.79c1.5-1.5,1.5-3.94,0-5.45-1.5-1.5-3.94-1.5-5.45,0-1.5,1.5-1.5,3.94,0,5.45,1.5,1.5,3.94,1.5,5.45,0Zm-13.79,13.79c1.5-1.5,1.5-3.94,0-5.45-1.5-1.5-3.94-1.5-5.45,0s-1.5,3.94,0,5.45,3.94,1.5,5.45,0Zm-13.79,13.79c1.5-1.5,1.5-3.94,0-5.45-1.5-1.5-3.94-1.5-5.45,0-1.5,1.5-1.5,3.94,0,5.45,1.5,1.5,3.94,1.5,5.45,0Zm-13.79,13.79c1.5-1.5,1.5-3.94,0-5.45s-3.94-1.5-5.45,0c-1.5,1.5-1.5,3.94,0,5.45,1.5,1.5,3.94,1.5,5.45,0Zm-13.79,13.79c1.5-1.5,1.5-3.94,0-5.45-1.5-1.5-3.94-1.5-5.45,0s-1.5,3.94,0,5.45c1.5,1.5,3.94,1.5,5.45,0Zm-13.79,13.79c1.5-1.5,1.5-3.94,0-5.45-1.5-1.5-3.94-1.5-5.45,0-1.5,1.5-1.5,3.94,0,5.45,1.5,1.5,3.94,1.5,5.45,0Zm-13.79,13.79c1.5-1.5,1.5-3.94,0-5.45s-3.94-1.5-5.45,0-1.5,3.94,0,5.45c1.5,1.5,3.94,1.5,5.45,0Zm-13.79,13.79c1.5-1.5,1.5-3.94,0-5.45s-3.94-1.5-5.45,0c-1.5,1.5-1.5,3.94,0,5.45,1.5,1.5,3.94,1.5,5.45,0Zm-13.79,13.79c1.5-1.5,1.5-3.94,0-5.45s-3.94-1.5-5.45,0-1.5,3.94,0,5.45c1.5,1.5,3.94,1.5,5.45,0Zm-13.79,13.79c1.5-1.5,1.5-3.94,0-5.45-1.5-1.5-3.94-1.5-5.45,0s-1.5,3.94,0,5.45,3.94,1.5,5.45,0Zm-13.79,13.79c1.5-1.5,1.5-3.94,0-5.45-1.5-1.5-3.94-1.5-5.45,0-1.5,1.5-1.5,3.94,0,5.45s3.94,1.5,5.45,0ZM475.48-47.41c1.5-1.5,1.5-3.94,0-5.45-1.5-1.5-3.94-1.5-5.45,0-1.5,1.5-1.5,3.94,0,5.45,1.5,1.5,3.94,1.5,5.45,0Zm-13.79,13.79c1.5-1.5,1.5-3.94,0-5.45-1.5-1.5-3.94-1.5-5.45,0-1.5,1.5-1.5,3.94,0,5.45s3.94,1.5,5.45,0Zm-13.79,13.79c1.5-1.5,1.5-3.94,0-5.45s-3.94-1.5-5.45,0c-1.5,1.5-1.5,3.94,0,5.45,1.5,1.5,3.94,1.5,5.45,0Zm-13.79,13.79c1.5-1.5,1.5-3.94,0-5.45-1.5-1.5-3.94-1.5-5.45,0-1.5,1.5-1.5,3.94,0,5.45,1.5,1.5,3.94,1.5,5.45,0Zm-13.79,13.79c1.5-1.5,1.5-3.94,0-5.45-1.5-1.5-3.94-1.5-5.45,0s-1.5,3.94,0,5.45,3.94,1.5,5.45,0Zm-13.79,13.79c1.5-1.5,1.5-3.94,0-5.45-1.5-1.5-3.94-1.5-5.45,0-1.5,1.5-1.5,3.94,0,5.45,1.5,1.5,3.94,1.5,5.45,0Zm-13.79,13.79c1.5-1.5,1.5-3.94,0-5.45s-3.94-1.5-5.45,0c-1.5,1.5-1.5,3.94,0,5.45,1.5,1.5,3.94,1.5,5.45,0Zm-13.79,13.79c1.5-1.5,1.5-3.94,0-5.45-1.5-1.5-3.94-1.5-5.45,0-1.5,1.5-1.5,3.94,0,5.45,1.5,1.5,3.94,1.5,5.45,0Zm-13.79,13.79c1.5-1.5,1.5-3.94,0-5.45-1.5-1.5-3.94-1.5-5.45,0-1.5,1.5-1.5,3.94,0,5.45s3.94,1.5,5.45,0Zm-13.79,13.79c1.5-1.5,1.5-3.94,0-5.45-1.5-1.5-3.94-1.5-5.45,0-1.5,1.5-1.5,3.94,0,5.45,1.5,1.5,3.94,1.5,5.45,0Zm-13.79,13.79c1.5-1.5,1.5-3.94,0-5.45s-3.94-1.5-5.45,0c-1.5,1.5-1.5,3.94,0,5.45,1.5,1.5,3.94,1.5,5.45,0Zm-13.79,13.79c1.5-1.5,1.5-3.94,0-5.45-1.5-1.5-3.94-1.5-5.45,0-1.5,1.5-1.5,3.94,0,5.45,1.5,1.5,3.94,1.5,5.45,0Zm-13.79,13.79c1.5-1.5,1.5-3.94,0-5.45-1.5-1.5-3.94-1.5-5.45,0s-1.5,3.94,0,5.45c1.5,1.5,3.94,1.5,5.45,0Zm-13.79,13.79c1.5-1.5,1.5-3.94,0-5.45-1.5-1.5-3.94-1.5-5.45,0s-1.5,3.94,0,5.45,3.94,1.5,5.45,0Zm-13.79,13.79c1.5-1.5,1.5-3.94,0-5.45-1.5-1.5-3.94-1.5-5.45,0s-1.5,3.94,0,5.45c1.5,1.5,3.94,1.5,5.45,0ZM458.2-49.88c1.5-1.5,1.5-3.94,0-5.45-1.5-1.5-3.94-1.5-5.45,0-1.5,1.5-1.5,3.94,0,5.45,1.5,1.5,3.94,1.5,5.45,0Zm-13.79,13.79c1.5-1.5,1.5-3.94,0-5.45s-3.94-1.5-5.45,0c-1.5,1.5-1.5,3.94,0,5.45,1.5,1.5,3.94,1.5,5.45,0Zm-13.79,13.79c1.5-1.5,1.5-3.94,0-5.45s-3.94-1.5-5.45,0c-1.5,1.5-1.5,3.94,0,5.45,1.5,1.5,3.94,1.5,5.45,0Zm-13.79,13.79c1.5-1.5,1.5-3.94,0-5.45-1.5-1.5-3.94-1.5-5.45,0-1.5,1.5-1.5,3.94,0,5.45,1.5,1.5,3.94,1.5,5.45,0Zm-13.79,13.79c1.5-1.5,1.5-3.94,0-5.45-1.5-1.5-3.94-1.5-5.45,0s-1.5,3.94,0,5.45,3.94,1.5,5.45,0Zm-13.79,13.79c1.5-1.5,1.5-3.94,0-5.45s-3.94-1.5-5.45,0-1.5,3.94,0,5.45c1.5,1.5,3.94,1.5,5.45,0Zm-13.79,13.79c1.5-1.5,1.5-3.94,0-5.45-1.5-1.5-3.94-1.5-5.45,0-1.5,1.5-1.5,3.94,0,5.45s3.94,1.5,5.45,0Zm-13.79,13.79c1.5-1.5,1.5-3.94,0-5.45s-3.94-1.5-5.45,0-1.5,3.94,0,5.45c1.5,1.5,3.94,1.5,5.45,0Zm-13.79,13.79c1.5-1.5,1.5-3.94,0-5.45s-3.94-1.5-5.45,0c-1.5,1.5-1.5,3.94,0,5.45,1.5,1.5,3.94,1.5,5.45,0Zm-13.79,13.79c1.5-1.5,1.5-3.94,0-5.45-1.5-1.5-3.94-1.5-5.45,0-1.5,1.5-1.5,3.94,0,5.45,1.5,1.5,3.94,1.5,5.45,0Zm-13.79,13.79c1.5-1.5,1.5-3.94,0-5.45-1.5-1.5-3.94-1.5-5.45,0-1.5,1.5-1.5,3.94,0,5.45s3.94,1.5,5.45,0Zm-13.79,13.79c1.5-1.5,1.5-3.94,0-5.45-1.5-1.5-3.94-1.5-5.45,0-1.5,1.5-1.5,3.94,0,5.45,1.5,1.5,3.94,1.5,5.45,0Zm-13.79,13.79c1.5-1.5,1.5-3.94,0-5.45-1.5-1.5-3.94-1.5-5.45,0-1.5,1.5-1.5,3.94,0,5.45,1.5,1.5,3.94,1.5,5.45,0Zm-13.79,13.79c1.5-1.5,1.5-3.94,0-5.45-1.5-1.5-3.94-1.5-5.45,0-1.5,1.5-1.5,3.94,0,5.45,1.5,1.5,3.94,1.5,5.45,0Zm-13.79,13.79c1.5-1.5,1.5-3.94,0-5.45-1.5-1.5-3.94-1.5-5.45,0-1.5,1.5-1.5,3.94,0,5.45,1.5,1.5,3.94,1.5,5.45,0ZM456.58-66.31c1.5-1.5,1.5-3.94,0-5.45-1.5-1.5-3.94-1.5-5.45,0s-1.5,3.94,0,5.45c1.5,1.5,3.94,1.5,5.45,0Zm-13.79,13.79c1.5-1.5,1.5-3.94,0-5.45s-3.94-1.5-5.45,0c-1.5,1.5-1.5,3.94,0,5.45,1.5,1.5,3.94,1.5,5.45,0Zm-13.79,13.79c1.5-1.5,1.5-3.94,0-5.45-1.5-1.5-3.94-1.5-5.45,0-1.5,1.5-1.5,3.94,0,5.45,1.5,1.5,3.94,1.5,5.45,0Zm-13.79,13.79c1.5-1.5,1.5-3.94,0-5.45s-3.94-1.5-5.45,0c-1.5,1.5-1.5,3.94,0,5.45,1.5,1.5,3.94,1.5,5.45,0Zm-13.79,13.79c1.5-1.5,1.5-3.94,0-5.45-1.5-1.5-3.94-1.5-5.45,0-1.5,1.5-1.5,3.94,0,5.45s3.94,1.5,5.45,0Zm-13.79,13.79c1.5-1.5,1.5-3.94,0-5.45-1.5-1.5-3.94-1.5-5.45,0-1.5,1.5-1.5,3.94,0,5.45,1.5,1.5,3.94,1.5,5.45,0Zm-13.79,13.79c1.5-1.5,1.5-3.94,0-5.45-1.5-1.5-3.94-1.5-5.45,0s-1.5,3.94,0,5.45c1.5,1.5,3.94,1.5,5.45,0Zm-13.79,13.79c1.5-1.5,1.5-3.94,0-5.45s-3.94-1.5-5.45,0-1.5,3.94,0,5.45c1.5,1.5,3.94,1.5,5.45,0Zm-13.79,13.79c1.5-1.5,1.5-3.94,0-5.45-1.5-1.5-3.94-1.5-5.45,0-1.5,1.5-1.5,3.94,0,5.45,1.5,1.5,3.94,1.5,5.45,0Zm-13.79,13.79c1.5-1.5,1.5-3.94,0-5.45-1.5-1.5-3.94-1.5-5.45,0-1.5,1.5-1.5,3.94,0,5.45,1.5,1.5,3.94,1.5,5.45,0Zm-13.79,13.79c1.5-1.5,1.5-3.94,0-5.45-1.5-1.5-3.94-1.5-5.45,0s-1.5,3.94,0,5.45,3.94,1.5,5.45,0Zm-13.79,13.79c1.5-1.5,1.5-3.94,0-5.45-1.5-1.5-3.94-1.5-5.45,0-1.5,1.5-1.5,3.94,0,5.45,1.5,1.5,3.94,1.5,5.45,0Zm-13.79,13.79c1.5-1.5,1.5-3.94,0-5.45-1.5-1.5-3.94-1.5-5.45,0-1.5,1.5-1.5,3.94,0,5.45,1.5,1.5,3.94,1.5,5.45,0Zm-13.79,13.79c1.5-1.5,1.5-3.94,0-5.45-1.5-1.5-3.94-1.5-5.45,0-1.5,1.5-1.5,3.94,0,5.45,1.5,1.5,3.94,1.5,5.45,0Zm-13.79,13.79c1.5-1.5,1.5-3.94,0-5.45s-3.94-1.5-5.45,0c-1.5,1.5-1.5,3.94,0,5.45,1.5,1.5,3.94,1.5,5.45,0ZM439.31-68.78c1.5-1.5,1.5-3.94,0-5.45-1.5-1.5-3.94-1.5-5.45,0-1.5,1.5-1.5,3.94,0,5.45,1.5,1.5,3.94,1.5,5.45,0Zm-13.79,13.79c1.5-1.5,1.5-3.94,0-5.45-1.5-1.5-3.94-1.5-5.45,0-1.5,1.5-1.5,3.94,0,5.45,1.5,1.5,3.94,1.5,5.45,0Zm-13.79,13.79c1.5-1.5,1.5-3.94,0-5.45s-3.94-1.5-5.45,0-1.5,3.94,0,5.45,3.94,1.5,5.45,0Zm-13.79,13.79c1.5-1.5,1.5-3.94,0-5.45-1.5-1.5-3.94-1.5-5.45,0-1.5,1.5-1.5,3.94,0,5.45s3.94,1.5,5.45,0Zm-13.79,13.79c1.5-1.5,1.5-3.94,0-5.45-1.5-1.5-3.94-1.5-5.45,0s-1.5,3.94,0,5.45c1.5,1.5,3.94,1.5,5.45,0ZM370.37,.16c1.5-1.5,1.5-3.94,0-5.45-1.5-1.5-3.94-1.5-5.45,0-1.5,1.5-1.5,3.94,0,5.45,1.5,1.5,3.94,1.5,5.45,0Zm-13.79,13.79c1.5-1.5,1.5-3.94,0-5.45-1.5-1.5-3.94-1.5-5.45,0s-1.5,3.94,0,5.45,3.94,1.5,5.45,0Zm-13.79,13.79c1.5-1.5,1.5-3.94,0-5.45-1.5-1.5-3.94-1.5-5.45,0-1.5,1.5-1.5,3.94,0,5.45,1.5,1.5,3.94,1.5,5.45,0Zm-13.79,13.79c1.5-1.5,1.5-3.94,0-5.45s-3.94-1.5-5.45,0c-1.5,1.5-1.5,3.94,0,5.45,1.5,1.5,3.94,1.5,5.45,0Zm-13.79,13.79c1.5-1.5,1.5-3.94,0-5.45s-3.94-1.5-5.45,0c-1.5,1.5-1.5,3.94,0,5.45,1.5,1.5,3.94,1.5,5.45,0Zm-13.79,13.79c1.5-1.5,1.5-3.94,0-5.45-1.5-1.5-3.94-1.5-5.45,0-1.5,1.5-1.5,3.94,0,5.45,1.5,1.5,3.94,1.5,5.45,0Zm-13.79,13.79c1.5-1.5,1.5-3.94,0-5.45-1.5-1.5-3.94-1.5-5.45,0-1.5,1.5-1.5,3.94,0,5.45s3.94,1.5,5.45,0Zm-13.79,13.79c1.5-1.5,1.5-3.94,0-5.45-1.5-1.5-3.94-1.5-5.45,0-1.5,1.5-1.5,3.94,0,5.45s3.94,1.5,5.45,0Zm-13.79,13.79c1.5-1.5,1.5-3.94,0-5.45-1.5-1.5-3.94-1.5-5.45,0-1.5,1.5-1.5,3.94,0,5.45,1.5,1.5,3.94,1.5,5.45,0Zm-13.79,13.79c1.5-1.5,1.5-3.94,0-5.45-1.5-1.5-3.94-1.5-5.45,0s-1.5,3.94,0,5.45,3.94,1.5,5.45,0ZM437.69-85.2c1.5-1.5,1.5-3.94,0-5.45s-3.94-1.5-5.45,0-1.5,3.94,0,5.45,3.94,1.5,5.45,0Zm-13.79,13.79c1.5-1.5,1.5-3.94,0-5.45-1.5-1.5-3.94-1.5-5.45,0-1.5,1.5-1.5,3.94,0,5.45,1.5,1.5,3.94,1.5,5.45,0Zm-13.79,13.79c1.5-1.5,1.5-3.94,0-5.45-1.5-1.5-3.94-1.5-5.45,0s-1.5,3.94,0,5.45c1.5,1.5,3.94,1.5,5.45,0Zm-13.79,13.79c1.5-1.5,1.5-3.94,0-5.45-1.5-1.5-3.94-1.5-5.45,0-1.5,1.5-1.5,3.94,0,5.45s3.94,1.5,5.45,0Zm-13.79,13.79c1.5-1.5,1.5-3.94,0-5.45-1.5-1.5-3.94-1.5-5.45,0-1.5,1.5-1.5,3.94,0,5.45,1.5,1.5,3.94,1.5,5.45,0Zm-13.79,13.79c1.5-1.5,1.5-3.94,0-5.45-1.5-1.5-3.94-1.5-5.45,0-1.5,1.5-1.5,3.94,0,5.45,1.5,1.5,3.94,1.5,5.45,0Zm-13.79,13.79c1.5-1.5,1.5-3.94,0-5.45-1.5-1.5-3.94-1.5-5.45,0s-1.5,3.94,0,5.45,3.94,1.5,5.45,0Zm-13.79,13.79c1.5-1.5,1.5-3.94,0-5.45-1.5-1.5-3.94-1.5-5.45,0-1.5,1.5-1.5,3.94,0,5.45,1.5,1.5,3.94,1.5,5.45,0Zm-13.79,13.79c1.5-1.5,1.5-3.94,0-5.45-1.5-1.5-3.94-1.5-5.45,0-1.5,1.5-1.5,3.94,0,5.45,1.5,1.5,3.94,1.5,5.45,0Zm-13.79,13.79c1.5-1.5,1.5-3.94,0-5.45s-3.94-1.5-5.45,0c-1.5,1.5-1.5,3.94,0,5.45,1.5,1.5,3.94,1.5,5.45,0Zm-13.79,13.79c1.5-1.5,1.5-3.94,0-5.45-1.5-1.5-3.94-1.5-5.45,0-1.5,1.5-1.5,3.94,0,5.45,1.5,1.5,3.94,1.5,5.45,0Zm-13.79,13.79c1.5-1.5,1.5-3.94,0-5.45-1.5-1.5-3.94-1.5-5.45,0-1.5,1.5-1.5,3.94,0,5.45s3.94,1.5,5.45,0Zm-13.79,13.79c1.5-1.5,1.5-3.94,0-5.45-1.5-1.5-3.94-1.5-5.45,0s-1.5,3.94,0,5.45c1.5,1.5,3.94,1.5,5.45,0Zm-13.79,13.79c1.5-1.5,1.5-3.94,0-5.45s-3.94-1.5-5.45,0c-1.5,1.5-1.5,3.94,0,5.45,1.5,1.5,3.94,1.5,5.45,0Zm-13.79,13.79c1.5-1.5,1.5-3.94,0-5.45-1.5-1.5-3.94-1.5-5.45,0s-1.5,3.94,0,5.45,3.94,1.5,5.45,0ZM420.41-87.67c1.5-1.5,1.5-3.94,0-5.45-1.5-1.5-3.94-1.5-5.45,0-1.5,1.5-1.5,3.94,0,5.45,1.5,1.5,3.94,1.5,5.45,0Zm-13.79,13.79c1.5-1.5,1.5-3.94,0-5.45-1.5-1.5-3.94-1.5-5.45,0s-1.5,3.94,0,5.45c1.5,1.5,3.94,1.5,5.45,0Zm-13.79,13.79c1.5-1.5,1.5-3.94,0-5.45-1.5-1.5-3.94-1.5-5.45,0-1.5,1.5-1.5,3.94,0,5.45,1.5,1.5,3.94,1.5,5.45,0Zm-13.79,13.79c1.5-1.5,1.5-3.94,0-5.45-1.5-1.5-3.94-1.5-5.45,0-1.5,1.5-1.5,3.94,0,5.45,1.5,1.5,3.94,1.5,5.45,0Zm-13.79,13.79c1.5-1.5,1.5-3.94,0-5.45-1.5-1.5-3.94-1.5-5.45,0-1.5,1.5-1.5,3.94,0,5.45,1.5,1.5,3.94,1.5,5.45,0Zm-13.79,13.79c1.5-1.5,1.5-3.94,0-5.45-1.5-1.5-3.94-1.5-5.45,0-1.5,1.5-1.5,3.94,0,5.45,1.5,1.5,3.94,1.5,5.45,0Zm-13.79,13.79c1.5-1.5,1.5-3.94,0-5.45-1.5-1.5-3.94-1.5-5.45,0-1.5,1.5-1.5,3.94,0,5.45s3.94,1.5,5.45,0Zm-13.79,13.79c1.5-1.5,1.5-3.94,0-5.45s-3.94-1.5-5.45,0-1.5,3.94,0,5.45c1.5,1.5,3.94,1.5,5.45,0Zm-13.79,13.79c1.5-1.5,1.5-3.94,0-5.45-1.5-1.5-3.94-1.5-5.45,0-1.5,1.5-1.5,3.94,0,5.45s3.94,1.5,5.45,0Zm-13.79,13.79c1.5-1.5,1.5-3.94,0-5.45s-3.94-1.5-5.45,0c-1.5,1.5-1.5,3.94,0,5.45,1.5,1.5,3.94,1.5,5.45,0Zm-13.79,13.79c1.5-1.5,1.5-3.94,0-5.45-1.5-1.5-3.94-1.5-5.45,0s-1.5,3.94,0,5.45c1.5,1.5,3.94,1.5,5.45,0Zm-13.79,13.79c1.5-1.5,1.5-3.94,0-5.45-1.5-1.5-3.94-1.5-5.45,0-1.5,1.5-1.5,3.94,0,5.45,1.5,1.5,3.94,1.5,5.45,0Zm-13.79,13.79c1.5-1.5,1.5-3.94,0-5.45-1.5-1.5-3.94-1.5-5.45,0s-1.5,3.94,0,5.45c1.5,1.5,3.94,1.5,5.45,0Zm-13.79,13.79c1.5-1.5,1.5-3.94,0-5.45-1.5-1.5-3.94-1.5-5.45,0-1.5,1.5-1.5,3.94,0,5.45s3.94,1.5,5.45,0Zm-13.79,13.79c1.5-1.5,1.5-3.94,0-5.45-1.5-1.5-3.94-1.5-5.45,0-1.5,1.5-1.5,3.94,0,5.45,1.5,1.5,3.94,1.5,5.45,0ZM418.8-104.09c1.5-1.5,1.5-3.94,0-5.45-1.5-1.5-3.94-1.5-5.45,0-1.5,1.5-1.5,3.94,0,5.45,1.5,1.5,3.94,1.5,5.45,0Zm-13.79,13.79c1.5-1.5,1.5-3.94,0-5.45-1.5-1.5-3.94-1.5-5.45,0-1.5,1.5-1.5,3.94,0,5.45,1.5,1.5,3.94,1.5,5.45,0Zm-13.79,13.79c1.5-1.5,1.5-3.94,0-5.45-1.5-1.5-3.94-1.5-5.45,0-1.5,1.5-1.5,3.94,0,5.45,1.5,1.5,3.94,1.5,5.45,0Zm-13.79,13.79c1.5-1.5,1.5-3.94,0-5.45-1.5-1.5-3.94-1.5-5.45,0-1.5,1.5-1.5,3.94,0,5.45,1.5,1.5,3.94,1.5,5.45,0Zm-13.79,13.79c1.5-1.5,1.5-3.94,0-5.45-1.5-1.5-3.94-1.5-5.45,0-1.5,1.5-1.5,3.94,0,5.45,1.5,1.5,3.94,1.5,5.45,0Zm-13.79,13.79c1.5-1.5,1.5-3.94,0-5.45s-3.94-1.5-5.45,0c-1.5,1.5-1.5,3.94,0,5.45,1.5,1.5,3.94,1.5,5.45,0Zm-13.79,13.79c1.5-1.5,1.5-3.94,0-5.45-1.5-1.5-3.94-1.5-5.45,0s-1.5,3.94,0,5.45,3.94,1.5,5.45,0Zm-13.79,13.79c1.5-1.5,1.5-3.94,0-5.45-1.5-1.5-3.94-1.5-5.45,0-1.5,1.5-1.5,3.94,0,5.45s3.94,1.5,5.45,0Zm-13.79,13.79c1.5-1.5,1.5-3.94,0-5.45-1.5-1.5-3.94-1.5-5.45,0-1.5,1.5-1.5,3.94,0,5.45,1.5,1.5,3.94,1.5,5.45,0Zm-13.79,13.79c1.5-1.5,1.5-3.94,0-5.45s-3.94-1.5-5.45,0-1.5,3.94,0,5.45c1.5,1.5,3.94,1.5,5.45,0Zm-13.79,13.79c1.5-1.5,1.5-3.94,0-5.45s-3.94-1.5-5.45,0-1.5,3.94,0,5.45,3.94,1.5,5.45,0Zm-13.79,13.79c1.5-1.5,1.5-3.94,0-5.45-1.5-1.5-3.94-1.5-5.45,0s-1.5,3.94,0,5.45c1.5,1.5,3.94,1.5,5.45,0Zm-13.79,13.79c1.5-1.5,1.5-3.94,0-5.45-1.5-1.5-3.94-1.5-5.45,0-1.5,1.5-1.5,3.94,0,5.45,1.5,1.5,3.94,1.5,5.45,0Zm-13.79,13.79c1.5-1.5,1.5-3.94,0-5.45-1.5-1.5-3.94-1.5-5.45,0-1.5,1.5-1.5,3.94,0,5.45,1.5,1.5,3.94,1.5,5.45,0Zm-13.79,13.79c1.5-1.5,1.5-3.94,0-5.45-1.5-1.5-3.94-1.5-5.45,0-1.5,1.5-1.5,3.94,0,5.45,1.5,1.5,3.94,1.5,5.45,0ZM401.52-106.56c1.5-1.5,1.5-3.94,0-5.45-1.5-1.5-3.94-1.5-5.45,0-1.5,1.5-1.5,3.94,0,5.45,1.5,1.5,3.94,1.5,5.45,0Zm-13.79,13.79c1.5-1.5,1.5-3.94,0-5.45-1.5-1.5-3.94-1.5-5.45,0s-1.5,3.94,0,5.45,3.94,1.5,5.45,0Zm-13.79,13.79c1.5-1.5,1.5-3.94,0-5.45-1.5-1.5-3.94-1.5-5.45,0-1.5,1.5-1.5,3.94,0,5.45s3.94,1.5,5.45,0Zm-13.79,13.79c1.5-1.5,1.5-3.94,0-5.45s-3.94-1.5-5.45,0c-1.5,1.5-1.5,3.94,0,5.45,1.5,1.5,3.94,1.5,5.45,0Zm-13.79,13.79c1.5-1.5,1.5-3.94,0-5.45-1.5-1.5-3.94-1.5-5.45,0-1.5,1.5-1.5,3.94,0,5.45s3.94,1.5,5.45,0Zm-13.79,13.79c1.5-1.5,1.5-3.94,0-5.45-1.5-1.5-3.94-1.5-5.45,0-1.5,1.5-1.5,3.94,0,5.45s3.94,1.5,5.45,0Zm-13.79,13.79c1.5-1.5,1.5-3.94,0-5.45s-3.94-1.5-5.45,0c-1.5,1.5-1.5,3.94,0,5.45,1.5,1.5,3.94,1.5,5.45,0Zm-13.79,13.79c1.5-1.5,1.5-3.94,0-5.45-1.5-1.5-3.94-1.5-5.45,0s-1.5,3.94,0,5.45c1.5,1.5,3.94,1.5,5.45,0Zm-13.79,13.79c1.5-1.5,1.5-3.94,0-5.45-1.5-1.5-3.94-1.5-5.45,0-1.5,1.5-1.5,3.94,0,5.45s3.94,1.5,5.45,0Zm-13.79,13.79c1.5-1.5,1.5-3.94,0-5.45-1.5-1.5-3.94-1.5-5.45,0-1.5,1.5-1.5,3.94,0,5.45,1.5,1.5,3.94,1.5,5.45,0Zm-13.79,13.79c1.5-1.5,1.5-3.94,0-5.45s-3.94-1.5-5.45,0c-1.5,1.5-1.5,3.94,0,5.45,1.5,1.5,3.94,1.5,5.45,0Zm-13.79,13.79c1.5-1.5,1.5-3.94,0-5.45s-3.94-1.5-5.45,0c-1.5,1.5-1.5,3.94,0,5.45,1.5,1.5,3.94,1.5,5.45,0Zm-13.79,13.79c1.5-1.5,1.5-3.94,0-5.45-1.5-1.5-3.94-1.5-5.45,0-1.5,1.5-1.5,3.94,0,5.45s3.94,1.5,5.45,0Zm-13.79,13.79c1.5-1.5,1.5-3.94,0-5.45-1.5-1.5-3.94-1.5-5.45,0-1.5,1.5-1.5,3.94,0,5.45s3.94,1.5,5.45,0Zm-13.79,13.79c1.5-1.5,1.5-3.94,0-5.45-1.5-1.5-3.94-1.5-5.45,0-1.5,1.5-1.5,3.94,0,5.45,1.5,1.5,3.94,1.5,5.45,0ZM399.9-122.99c1.5-1.5,1.5-3.94,0-5.45-1.5-1.5-3.94-1.5-5.45,0-1.5,1.5-1.5,3.94,0,5.45,1.5,1.5,3.94,1.5,5.45,0Zm-13.79,13.79c1.5-1.5,1.5-3.94,0-5.45-1.5-1.5-3.94-1.5-5.45,0-1.5,1.5-1.5,3.94,0,5.45,1.5,1.5,3.94,1.5,5.45,0Zm-13.79,13.79c1.5-1.5,1.5-3.94,0-5.45-1.5-1.5-3.94-1.5-5.45,0-1.5,1.5-1.5,3.94,0,5.45,1.5,1.5,3.94,1.5,5.45,0Zm-13.79,13.79c1.5-1.5,1.5-3.94,0-5.45-1.5-1.5-3.94-1.5-5.45,0s-1.5,3.94,0,5.45,3.94,1.5,5.45,0Zm-13.79,13.79c1.5-1.5,1.5-3.94,0-5.45-1.5-1.5-3.94-1.5-5.45,0-1.5,1.5-1.5,3.94,0,5.45,1.5,1.5,3.94,1.5,5.45,0Zm-13.79,13.79c1.5-1.5,1.5-3.94,0-5.45-1.5-1.5-3.94-1.5-5.45,0-1.5,1.5-1.5,3.94,0,5.45s3.94,1.5,5.45,0Zm-13.79,13.79c1.5-1.5,1.5-3.94,0-5.45-1.5-1.5-3.94-1.5-5.45,0s-1.5,3.94,0,5.45c1.5,1.5,3.94,1.5,5.45,0Zm-13.79,13.79c1.5-1.5,1.5-3.94,0-5.45-1.5-1.5-3.94-1.5-5.45,0s-1.5,3.94,0,5.45,3.94,1.5,5.45,0Zm-13.79,13.79c1.5-1.5,1.5-3.94,0-5.45-1.5-1.5-3.94-1.5-5.45,0s-1.5,3.94,0,5.45,3.94,1.5,5.45,0Zm-13.79,13.79c1.5-1.5,1.5-3.94,0-5.45s-3.94-1.5-5.45,0c-1.5,1.5-1.5,3.94,0,5.45,1.5,1.5,3.94,1.5,5.45,0Zm-13.79,13.79c1.5-1.5,1.5-3.94,0-5.45-1.5-1.5-3.94-1.5-5.45,0-1.5,1.5-1.5,3.94,0,5.45,1.5,1.5,3.94,1.5,5.45,0Zm-13.79,13.79c1.5-1.5,1.5-3.94,0-5.45s-3.94-1.5-5.45,0c-1.5,1.5-1.5,3.94,0,5.45,1.5,1.5,3.94,1.5,5.45,0Zm-13.79,13.79c1.5-1.5,1.5-3.94,0-5.45-1.5-1.5-3.94-1.5-5.45,0-1.5,1.5-1.5,3.94,0,5.45,1.5,1.5,3.94,1.5,5.45,0Zm-13.79,13.79c1.5-1.5,1.5-3.94,0-5.45-1.5-1.5-3.94-1.5-5.45,0-1.5,1.5-1.5,3.94,0,5.45,1.5,1.5,3.94,1.5,5.45,0Zm-13.79,13.79c1.5-1.5,1.5-3.94,0-5.45s-3.94-1.5-5.45,0c-1.5,1.5-1.5,3.94,0,5.45s3.94,1.5,5.45,0ZM382.63-125.46c1.5-1.5,1.5-3.94,0-5.45-1.5-1.5-3.94-1.5-5.45,0-1.5,1.5-1.5,3.94,0,5.45,1.5,1.5,3.94,1.5,5.45,0Zm-13.79,13.79c1.5-1.5,1.5-3.94,0-5.45s-3.94-1.5-5.45,0c-1.5,1.5-1.5,3.94,0,5.45,1.5,1.5,3.94,1.5,5.45,0Zm-13.79,13.79c1.5-1.5,1.5-3.94,0-5.45-1.5-1.5-3.94-1.5-5.45,0-1.5,1.5-1.5,3.94,0,5.45,1.5,1.5,3.94,1.5,5.45,0Zm-13.79,13.79c1.5-1.5,1.5-3.94,0-5.45-1.5-1.5-3.94-1.5-5.45,0-1.5,1.5-1.5,3.94,0,5.45,1.5,1.5,3.94,1.5,5.45,0Zm-13.79,13.79c1.5-1.5,1.5-3.94,0-5.45-1.5-1.5-3.94-1.5-5.45,0-1.5,1.5-1.5,3.94,0,5.45,1.5,1.5,3.94,1.5,5.45,0Zm-13.79,13.79c1.5-1.5,1.5-3.94,0-5.45-1.5-1.5-3.94-1.5-5.45,0-1.5,1.5-1.5,3.94,0,5.45,1.5,1.5,3.94,1.5,5.45,0Zm-13.79,13.79c1.5-1.5,1.5-3.94,0-5.45-1.5-1.5-3.94-1.5-5.45,0-1.5,1.5-1.5,3.94,0,5.45,1.5,1.5,3.94,1.5,5.45,0Zm-13.79,13.79c1.5-1.5,1.5-3.94,0-5.45-1.5-1.5-3.94-1.5-5.45,0s-1.5,3.94,0,5.45,3.94,1.5,5.45,0Zm-13.79,13.79c1.5-1.5,1.5-3.94,0-5.45s-3.94-1.5-5.45,0c-1.5,1.5-1.5,3.94,0,5.45s3.94,1.5,5.45,0Zm-13.79,13.79c1.5-1.5,1.5-3.94,0-5.45-1.5-1.5-3.94-1.5-5.45,0-1.5,1.5-1.5,3.94,0,5.45,1.5,1.5,3.94,1.5,5.45,0Zm-13.79,13.79c1.5-1.5,1.5-3.94,0-5.45-1.5-1.5-3.94-1.5-5.45,0-1.5,1.5-1.5,3.94,0,5.45,1.5,1.5,3.94,1.5,5.45,0Zm-13.79,13.79c1.5-1.5,1.5-3.94,0-5.45-1.5-1.5-3.94-1.5-5.45,0-1.5,1.5-1.5,3.94,0,5.45,1.5,1.5,3.94,1.5,5.45,0Zm-13.79,13.79c1.5-1.5,1.5-3.94,0-5.45-1.5-1.5-3.94-1.5-5.45,0s-1.5,3.94,0,5.45c1.5,1.5,3.94,1.5,5.45,0Zm-13.79,13.79c1.5-1.5,1.5-3.94,0-5.45s-3.94-1.5-5.45,0-1.5,3.94,0,5.45c1.5,1.5,3.94,1.5,5.45,0Zm-13.79,13.79c1.5-1.5,1.5-3.94,0-5.45s-3.94-1.5-5.45,0c-1.5,1.5-1.5,3.94,0,5.45,1.5,1.5,3.94,1.5,5.45,0Zm191.4-209.44c1.5-1.5,1.5-3.94,0-5.45-1.5-1.5-3.94-1.5-5.45,0-1.5,1.5-1.5,3.94,0,5.45,1.5,1.5,3.94,1.5,5.45,0Zm-13.79,13.79c1.5-1.5,1.5-3.94,0-5.45-1.5-1.5-3.94-1.5-5.45,0-1.5,1.5-1.5,3.94,0,5.45s3.94,1.5,5.45,0Zm-13.79,13.79c1.5-1.5,1.5-3.94,0-5.45-1.5-1.5-3.94-1.5-5.45,0-1.5,1.5-1.5,3.94,0,5.45,1.5,1.5,3.94,1.5,5.45,0Zm-13.79,13.79c1.5-1.5,1.5-3.94,0-5.45-1.5-1.5-3.94-1.5-5.45,0-1.5,1.5-1.5,3.94,0,5.45,1.5,1.5,3.94,1.5,5.45,0Zm-13.79,13.79c1.5-1.5,1.5-3.94,0-5.45-1.5-1.5-3.94-1.5-5.45,0-1.5,1.5-1.5,3.94,0,5.45,1.5,1.5,3.94,1.5,5.45,0Zm-13.79,13.79c1.5-1.5,1.5-3.94,0-5.45s-3.94-1.5-5.45,0c-1.5,1.5-1.5,3.94,0,5.45,1.5,1.5,3.94,1.5,5.45,0Zm-13.79,13.79c1.5-1.5,1.5-3.94,0-5.45s-3.94-1.5-5.45,0c-1.5,1.5-1.5,3.94,0,5.45,1.5,1.5,3.94,1.5,5.45,0Zm-13.79,13.79c1.5-1.5,1.5-3.94,0-5.45-1.5-1.5-3.94-1.5-5.45,0s-1.5,3.94,0,5.45c1.5,1.5,3.94,1.5,5.45,0Zm-13.79,13.79c1.5-1.5,1.5-3.94,0-5.45-1.5-1.5-3.94-1.5-5.45,0s-1.5,3.94,0,5.45,3.94,1.5,5.45,0Zm-13.79,13.79c1.5-1.5,1.5-3.94,0-5.45-1.5-1.5-3.94-1.5-5.45,0-1.5,1.5-1.5,3.94,0,5.45s3.94,1.5,5.45,0Zm-13.79,13.79c1.5-1.5,1.5-3.94,0-5.45s-3.94-1.5-5.45,0-1.5,3.94,0,5.45,3.94,1.5,5.45,0Zm-13.79,13.79c1.5-1.5,1.5-3.94,0-5.45-1.5-1.5-3.94-1.5-5.45,0s-1.5,3.94,0,5.45c1.5,1.5,3.94,1.5,5.45,0Zm-13.79,13.79c1.5-1.5,1.5-3.94,0-5.45-1.5-1.5-3.94-1.5-5.45,0-1.5,1.5-1.5,3.94,0,5.45,1.5,1.5,3.94,1.5,5.45,0Zm-13.79,13.79c1.5-1.5,1.5-3.94,0-5.45s-3.94-1.5-5.45,0-1.5,3.94,0,5.45c1.5,1.5,3.94,1.5,5.45,0Zm-13.79,13.79c1.5-1.5,1.5-3.94,0-5.45s-3.94-1.5-5.45,0-1.5,3.94,0,5.45c1.5,1.5,3.94,1.5,5.45,0Zm175.74-195.49c1.5-1.5,1.5-3.94,0-5.45s-3.94-1.5-5.45,0c-1.5,1.5-1.5,3.94,0,5.45,1.5,1.5,3.94,1.5,5.45,0Zm-13.79,13.79c1.5-1.5,1.5-3.94,0-5.45-1.5-1.5-3.94-1.5-5.45,0-1.5,1.5-1.5,3.94,0,5.45,1.5,1.5,3.94,1.5,5.45,0Zm-13.79,13.79c1.5-1.5,1.5-3.94,0-5.45-1.5-1.5-3.94-1.5-5.45,0-1.5,1.5-1.5,3.94,0,5.45,1.5,1.5,3.94,1.5,5.45,0Zm-13.79,13.79c1.5-1.5,1.5-3.94,0-5.45-1.5-1.5-3.94-1.5-5.45,0-1.5,1.5-1.5,3.94,0,5.45s3.94,1.5,5.45,0Zm-13.79,13.79c1.5-1.5,1.5-3.94,0-5.45-1.5-1.5-3.94-1.5-5.45,0-1.5,1.5-1.5,3.94,0,5.45,1.5,1.5,3.94,1.5,5.45,0Zm-13.79,13.79c1.5-1.5,1.5-3.94,0-5.45s-3.94-1.5-5.45,0c-1.5,1.5-1.5,3.94,0,5.45,1.5,1.5,3.94,1.5,5.45,0Zm-13.79,13.79c1.5-1.5,1.5-3.94,0-5.45-1.5-1.5-3.94-1.5-5.45,0-1.5,1.5-1.5,3.94,0,5.45,1.5,1.5,3.94,1.5,5.45,0Zm-13.79,13.79c1.5-1.5,1.5-3.94,0-5.45s-3.94-1.5-5.45,0c-1.5,1.5-1.5,3.94,0,5.45,1.5,1.5,3.94,1.5,5.45,0Zm-13.79,13.79c1.5-1.5,1.5-3.94,0-5.45-1.5-1.5-3.94-1.5-5.45,0s-1.5,3.94,0,5.45c1.5,1.5,3.94,1.5,5.45,0Zm-13.79,13.79c1.5-1.5,1.5-3.94,0-5.45-1.5-1.5-3.94-1.5-5.45,0s-1.5,3.94,0,5.45c1.5,1.5,3.94,1.5,5.45,0Zm-13.79,13.79c1.5-1.5,1.5-3.94,0-5.45s-3.94-1.5-5.45,0c-1.5,1.5-1.5,3.94,0,5.45,1.5,1.5,3.94,1.5,5.45,0Zm-13.79,13.79c1.5-1.5,1.5-3.94,0-5.45-1.5-1.5-3.94-1.5-5.45,0s-1.5,3.94,0,5.45,3.94,1.5,5.45,0Zm-13.79,13.79c1.5-1.5,1.5-3.94,0-5.45s-3.94-1.5-5.45,0c-1.5,1.5-1.5,3.94,0,5.45s3.94,1.5,5.45,0Zm-13.79,13.79c1.5-1.5,1.5-3.94,0-5.45-1.5-1.5-3.94-1.5-5.45,0s-1.5,3.94,0,5.45,3.94,1.5,5.45,0Zm-13.79,13.79c1.5-1.5,1.5-3.94,0-5.45-1.5-1.5-3.94-1.5-5.45,0-1.5,1.5-1.5,3.94,0,5.45s3.94,1.5,5.45,0Zm191.4-209.44c1.5-1.5,1.5-3.94,0-5.45s-3.94-1.5-5.45,0c-1.5,1.5-1.5,3.94,0,5.45,1.5,1.5,3.94,1.5,5.45,0Zm-13.79,13.79c1.5-1.5,1.5-3.94,0-5.45s-3.94-1.5-5.45,0c-1.5,1.5-1.5,3.94,0,5.45,1.5,1.5,3.94,1.5,5.45,0Zm-13.79,13.79c1.5-1.5,1.5-3.94,0-5.45s-3.94-1.5-5.45,0c-1.5,1.5-1.5,3.94,0,5.45,1.5,1.5,3.94,1.5,5.45,0Zm-13.79,13.79c1.5-1.5,1.5-3.94,0-5.45-1.5-1.5-3.94-1.5-5.45,0s-1.5,3.94,0,5.45c1.5,1.5,3.94,1.5,5.45,0Zm-13.79,13.79c1.5-1.5,1.5-3.94,0-5.45-1.5-1.5-3.94-1.5-5.45,0-1.5,1.5-1.5,3.94,0,5.45,1.5,1.5,3.94,1.5,5.45,0Zm-13.79,13.79c1.5-1.5,1.5-3.94,0-5.45s-3.94-1.5-5.45,0-1.5,3.94,0,5.45,3.94,1.5,5.45,0Zm-13.79,13.79c1.5-1.5,1.5-3.94,0-5.45s-3.94-1.5-5.45,0-1.5,3.94,0,5.45c1.5,1.5,3.94,1.5,5.45,0Zm-13.79,13.79c1.5-1.5,1.5-3.94,0-5.45-1.5-1.5-3.94-1.5-5.45,0-1.5,1.5-1.5,3.94,0,5.45s3.94,1.5,5.45,0Zm-13.79,13.79c1.5-1.5,1.5-3.94,0-5.45-1.5-1.5-3.94-1.5-5.45,0s-1.5,3.94,0,5.45c1.5,1.5,3.94,1.5,5.45,0Zm-13.79,13.79c1.5-1.5,1.5-3.94,0-5.45-1.5-1.5-3.94-1.5-5.45,0s-1.5,3.94,0,5.45c1.5,1.5,3.94,1.5,5.45,0Zm-13.79,13.79c1.5-1.5,1.5-3.94,0-5.45s-3.94-1.5-5.45,0c-1.5,1.5-1.5,3.94,0,5.45,1.5,1.5,3.94,1.5,5.45,0Zm-13.79,13.79c1.5-1.5,1.5-3.94,0-5.45-1.5-1.5-3.94-1.5-5.45,0s-1.5,3.94,0,5.45,3.94,1.5,5.45,0Zm-13.79,13.79c1.5-1.5,1.5-3.94,0-5.45-1.5-1.5-3.94-1.5-5.45,0-1.5,1.5-1.5,3.94,0,5.45s3.94,1.5,5.45,0Zm-13.79,13.79c1.5-1.5,1.5-3.94,0-5.45-1.5-1.5-3.94-1.5-5.45,0-1.5,1.5-1.5,3.94,0,5.45,1.5,1.5,3.94,1.5,5.45,0Zm-13.79,13.79c1.5-1.5,1.5-3.94,0-5.45-1.5-1.5-3.94-1.5-5.45,0-1.5,1.5-1.5,3.94,0,5.45s3.94,1.5,5.45,0Zm175.74-195.49c1.5-1.5,1.5-3.94,0-5.45-1.5-1.5-3.94-1.5-5.45,0-1.5,1.5-1.5,3.94,0,5.45,1.5,1.5,3.94,1.5,5.45,0Zm-13.79,13.79c1.5-1.5,1.5-3.94,0-5.45-1.5-1.5-3.94-1.5-5.45,0-1.5,1.5-1.5,3.94,0,5.45,1.5,1.5,3.94,1.5,5.45,0Zm-13.79,13.79c1.5-1.5,1.5-3.94,0-5.45s-3.94-1.5-5.45,0-1.5,3.94,0,5.45,3.94,1.5,5.45,0Zm-13.79,13.79c1.5-1.5,1.5-3.94,0-5.45-1.5-1.5-3.94-1.5-5.45,0-1.5,1.5-1.5,3.94,0,5.45s3.94,1.5,5.45,0Zm-13.79,13.79c1.5-1.5,1.5-3.94,0-5.45-1.5-1.5-3.94-1.5-5.45,0-1.5,1.5-1.5,3.94,0,5.45,1.5,1.5,3.94,1.5,5.45,0Zm-13.79,13.79c1.5-1.5,1.5-3.94,0-5.45-1.5-1.5-3.94-1.5-5.45,0-1.5,1.5-1.5,3.94,0,5.45,1.5,1.5,3.94,1.5,5.45,0Zm-13.79,13.79c1.5-1.5,1.5-3.94,0-5.45-1.5-1.5-3.94-1.5-5.45,0-1.5,1.5-1.5,3.94,0,5.45,1.5,1.5,3.94,1.5,5.45,0Zm-13.79,13.79c1.5-1.5,1.5-3.94,0-5.45s-3.94-1.5-5.45,0c-1.5,1.5-1.5,3.94,0,5.45,1.5,1.5,3.94,1.5,5.45,0Zm-13.79,13.79c1.5-1.5,1.5-3.94,0-5.45s-3.94-1.5-5.45,0c-1.5,1.5-1.5,3.94,0,5.45,1.5,1.5,3.94,1.5,5.45,0Zm-13.79,13.79c1.5-1.5,1.5-3.94,0-5.45s-3.94-1.5-5.45,0c-1.5,1.5-1.5,3.94,0,5.45,1.5,1.5,3.94,1.5,5.45,0Zm-13.79,13.79c1.5-1.5,1.5-3.94,0-5.45-1.5-1.5-3.94-1.5-5.45,0s-1.5,3.94,0,5.45,3.94,1.5,5.45,0Zm-13.79,13.79c1.5-1.5,1.5-3.94,0-5.45-1.5-1.5-3.94-1.5-5.45,0s-1.5,3.94,0,5.45c1.5,1.5,3.94,1.5,5.45,0Zm-13.79,13.79c1.5-1.5,1.5-3.94,0-5.45-1.5-1.5-3.94-1.5-5.45,0-1.5,1.5-1.5,3.94,0,5.45s3.94,1.5,5.45,0Zm-13.79,13.79c1.5-1.5,1.5-3.94,0-5.45-1.5-1.5-3.94-1.5-5.45,0s-1.5,3.94,0,5.45c1.5,1.5,3.94,1.5,5.45,0Zm-13.79,13.79c1.5-1.5,1.5-3.94,0-5.45-1.5-1.5-3.94-1.5-5.45,0s-1.5,3.94,0,5.45,3.94,1.5,5.45,0Zm191.4-209.44c1.5-1.5,1.5-3.94,0-5.45s-3.94-1.5-5.45,0-1.5,3.94,0,5.45,3.94,1.5,5.45,0Zm-13.79,13.79c1.5-1.5,1.5-3.94,0-5.45s-3.94-1.5-5.45,0-1.5,3.94,0,5.45,3.94,1.5,5.45,0Zm-13.79,13.79c1.5-1.5,1.5-3.94,0-5.45s-3.94-1.5-5.45,0-1.5,3.94,0,5.45c1.5,1.5,3.94,1.5,5.45,0Zm-13.79,13.79c1.5-1.5,1.5-3.94,0-5.45-1.5-1.5-3.94-1.5-5.45,0-1.5,1.5-1.5,3.94,0,5.45,1.5,1.5,3.94,1.5,5.45,0Zm-13.79,13.79c1.5-1.5,1.5-3.94,0-5.45-1.5-1.5-3.94-1.5-5.45,0-1.5,1.5-1.5,3.94,0,5.45,1.5,1.5,3.94,1.5,5.45,0Zm-13.79,13.79c1.5-1.5,1.5-3.94,0-5.45-1.5-1.5-3.94-1.5-5.45,0-1.5,1.5-1.5,3.94,0,5.45,1.5,1.5,3.94,1.5,5.45,0Zm-13.79,13.79c1.5-1.5,1.5-3.94,0-5.45-1.5-1.5-3.94-1.5-5.45,0-1.5,1.5-1.5,3.94,0,5.45,1.5,1.5,3.94,1.5,5.45,0Zm-13.79,13.79c1.5-1.5,1.5-3.94,0-5.45-1.5-1.5-3.94-1.5-5.45,0-1.5,1.5-1.5,3.94,0,5.45,1.5,1.5,3.94,1.5,5.45,0Zm-13.79,13.79c1.5-1.5,1.5-3.94,0-5.45-1.5-1.5-3.94-1.5-5.45,0s-1.5,3.94,0,5.45c1.5,1.5,3.94,1.5,5.45,0Zm-13.79,13.79c1.5-1.5,1.5-3.94,0-5.45s-3.94-1.5-5.45,0c-1.5,1.5-1.5,3.94,0,5.45s3.94,1.5,5.45,0Zm-13.79,13.79c1.5-1.5,1.5-3.94,0-5.45s-3.94-1.5-5.45,0-1.5,3.94,0,5.45,3.94,1.5,5.45,0Zm-13.79,13.79c1.5-1.5,1.5-3.94,0-5.45-1.5-1.5-3.94-1.5-5.45,0-1.5,1.5-1.5,3.94,0,5.45s3.94,1.5,5.45,0Zm-13.79,13.79c1.5-1.5,1.5-3.94,0-5.45-1.5-1.5-3.94-1.5-5.45,0s-1.5,3.94,0,5.45,3.94,1.5,5.45,0ZM163.99-.44c1.5-1.5,1.5-3.94,0-5.45s-3.94-1.5-5.45,0-1.5,3.94,0,5.45c1.5,1.5,3.94,1.5,5.45,0Zm-13.79,13.79c1.5-1.5,1.5-3.94,0-5.45-1.5-1.5-3.94-1.5-5.45,0-1.5,1.5-1.5,3.94,0,5.45s3.94,1.5,5.45,0Zm175.74-195.49c1.5-1.5,1.5-3.94,0-5.45-1.5-1.5-3.94-1.5-5.45,0s-1.5,3.94,0,5.45,3.94,1.5,5.45,0Zm-13.79,13.79c1.5-1.5,1.5-3.94,0-5.45-1.5-1.5-3.94-1.5-5.45,0-1.5,1.5-1.5,3.94,0,5.45,1.5,1.5,3.94,1.5,5.45,0Zm-13.79,13.79c1.5-1.5,1.5-3.94,0-5.45s-3.94-1.5-5.45,0c-1.5,1.5-1.5,3.94,0,5.45,1.5,1.5,3.94,1.5,5.45,0Zm-13.79,13.79c1.5-1.5,1.5-3.94,0-5.45-1.5-1.5-3.94-1.5-5.45,0-1.5,1.5-1.5,3.94,0,5.45,1.5,1.5,3.94,1.5,5.45,0Zm-13.79,13.79c1.5-1.5,1.5-3.94,0-5.45s-3.94-1.5-5.45,0c-1.5,1.5-1.5,3.94,0,5.45,1.5,1.5,3.94,1.5,5.45,0Zm-13.79,13.79c1.5-1.5,1.5-3.94,0-5.45-1.5-1.5-3.94-1.5-5.45,0-1.5,1.5-1.5,3.94,0,5.45,1.5,1.5,3.94,1.5,5.45,0Zm-13.79,13.79c1.5-1.5,1.5-3.94,0-5.45s-3.94-1.5-5.45,0-1.5,3.94,0,5.45c1.5,1.5,3.94,1.5,5.45,0Zm-13.79,13.79c1.5-1.5,1.5-3.94,0-5.45s-3.94-1.5-5.45,0c-1.5,1.5-1.5,3.94,0,5.45,1.5,1.5,3.94,1.5,5.45,0Zm-13.79,13.79c1.5-1.5,1.5-3.94,0-5.45-1.5-1.5-3.94-1.5-5.45,0-1.5,1.5-1.5,3.94,0,5.45,1.5,1.5,3.94,1.5,5.45,0Zm-13.79,13.79c1.5-1.5,1.5-3.94,0-5.45-1.5-1.5-3.94-1.5-5.45,0s-1.5,3.94,0,5.45c1.5,1.5,3.94,1.5,5.45,0Zm-13.79,13.79c1.5-1.5,1.5-3.94,0-5.45s-3.94-1.5-5.45,0c-1.5,1.5-1.5,3.94,0,5.45,1.5,1.5,3.94,1.5,5.45,0Zm-13.79,13.79c1.5-1.5,1.5-3.94,0-5.45-1.5-1.5-3.94-1.5-5.45,0-1.5,1.5-1.5,3.94,0,5.45,1.5,1.5,3.94,1.5,5.45,0Zm-13.79,13.79c1.5-1.5,1.5-3.94,0-5.45s-3.94-1.5-5.45,0c-1.5,1.5-1.5,3.94,0,5.45,1.5,1.5,3.94,1.5,5.45,0Zm-13.79,13.79c1.5-1.5,1.5-3.94,0-5.45-1.5-1.5-3.94-1.5-5.45,0-1.5,1.5-1.5,3.94,0,5.45s3.94,1.5,5.45,0Zm-13.79,13.79c1.5-1.5,1.5-3.94,0-5.45-1.5-1.5-3.94-1.5-5.45,0s-1.5,3.94,0,5.45c1.5,1.5,3.94,1.5,5.45,0Zm191.4-209.44c1.5-1.5,1.5-3.94,0-5.45-1.5-1.5-3.94-1.5-5.45,0-1.5,1.5-1.5,3.94,0,5.45s3.94,1.5,5.45,0Zm-13.79,13.79c1.5-1.5,1.5-3.94,0-5.45-1.5-1.5-3.94-1.5-5.45,0-1.5,1.5-1.5,3.94,0,5.45,1.5,1.5,3.94,1.5,5.45,0Zm-13.79,13.79c1.5-1.5,1.5-3.94,0-5.45s-3.94-1.5-5.45,0c-1.5,1.5-1.5,3.94,0,5.45,1.5,1.5,3.94,1.5,5.45,0Zm-13.79,13.79c1.5-1.5,1.5-3.94,0-5.45s-3.94-1.5-5.45,0c-1.5,1.5-1.5,3.94,0,5.45,1.5,1.5,3.94,1.5,5.45,0Zm-13.79,13.79c1.5-1.5,1.5-3.94,0-5.45-1.5-1.5-3.94-1.5-5.45,0-1.5,1.5-1.5,3.94,0,5.45,1.5,1.5,3.94,1.5,5.45,0Zm-13.79,13.79c1.5-1.5,1.5-3.94,0-5.45s-3.94-1.5-5.45,0-1.5,3.94,0,5.45c1.5,1.5,3.94,1.5,5.45,0Zm-13.79,13.79c1.5-1.5,1.5-3.94,0-5.45-1.5-1.5-3.94-1.5-5.45,0-1.5,1.5-1.5,3.94,0,5.45,1.5,1.5,3.94,1.5,5.45,0Zm-13.79,13.79c1.5-1.5,1.5-3.94,0-5.45-1.5-1.5-3.94-1.5-5.45,0-1.5,1.5-1.5,3.94,0,5.45,1.5,1.5,3.94,1.5,5.45,0Zm-13.79,13.79c1.5-1.5,1.5-3.94,0-5.45s-3.94-1.5-5.45,0c-1.5,1.5-1.5,3.94,0,5.45,1.5,1.5,3.94,1.5,5.45,0Zm-13.79,13.79c1.5-1.5,1.5-3.94,0-5.45-1.5-1.5-3.94-1.5-5.45,0s-1.5,3.94,0,5.45,3.94,1.5,5.45,0Zm-13.79,13.79c1.5-1.5,1.5-3.94,0-5.45s-3.94-1.5-5.45,0-1.5,3.94,0,5.45,3.94,1.5,5.45,0Zm-13.79,13.79c1.5-1.5,1.5-3.94,0-5.45-1.5-1.5-3.94-1.5-5.45,0-1.5,1.5-1.5,3.94,0,5.45,1.5,1.5,3.94,1.5,5.45,0Zm-13.79,13.79c1.5-1.5,1.5-3.94,0-5.45-1.5-1.5-3.94-1.5-5.45,0s-1.5,3.94,0,5.45,3.94,1.5,5.45,0Zm-13.79,13.79c1.5-1.5,1.5-3.94,0-5.45s-3.94-1.5-5.45,0c-1.5,1.5-1.5,3.94,0,5.45,1.5,1.5,3.94,1.5,5.45,0Zm-13.79,13.79c1.5-1.5,1.5-3.94,0-5.45s-3.94-1.5-5.45,0-1.5,3.94,0,5.45,3.94,1.5,5.45,0Zm175.74-195.49c1.5-1.5,1.5-3.94,0-5.45s-3.94-1.5-5.45,0-1.5,3.94,0,5.45c1.5,1.5,3.94,1.5,5.45,0Zm-13.79,13.79c1.5-1.5,1.5-3.94,0-5.45s-3.94-1.5-5.45,0-1.5,3.94,0,5.45,3.94,1.5,5.45,0Zm-13.79,13.79c1.5-1.5,1.5-3.94,0-5.45s-3.94-1.5-5.45,0-1.5,3.94,0,5.45,3.94,1.5,5.45,0Zm-13.79,13.79c1.5-1.5,1.5-3.94,0-5.45s-3.94-1.5-5.45,0-1.5,3.94,0,5.45c1.5,1.5,3.94,1.5,5.45,0Zm-13.79,13.79c1.5-1.5,1.5-3.94,0-5.45-1.5-1.5-3.94-1.5-5.45,0s-1.5,3.94,0,5.45,3.94,1.5,5.45,0Zm-13.79,13.79c1.5-1.5,1.5-3.94,0-5.45-1.5-1.5-3.94-1.5-5.45,0s-1.5,3.94,0,5.45c1.5,1.5,3.94,1.5,5.45,0Zm-13.79,13.79c1.5-1.5,1.5-3.94,0-5.45-1.5-1.5-3.94-1.5-5.45,0s-1.5,3.94,0,5.45c1.5,1.5,3.94,1.5,5.45,0Zm-13.79,13.79c1.5-1.5,1.5-3.94,0-5.45-1.5-1.5-3.94-1.5-5.45,0-1.5,1.5-1.5,3.94,0,5.45,1.5,1.5,3.94,1.5,5.45,0Zm-13.79,13.79c1.5-1.5,1.5-3.94,0-5.45s-3.94-1.5-5.45,0-1.5,3.94,0,5.45,3.94,1.5,5.45,0Zm-13.79,13.79c1.5-1.5,1.5-3.94,0-5.45-1.5-1.5-3.94-1.5-5.45,0-1.5,1.5-1.5,3.94,0,5.45,1.5,1.5,3.94,1.5,5.45,0Zm-13.79,13.79c1.5-1.5,1.5-3.94,0-5.45s-3.94-1.5-5.45,0-1.5,3.94,0,5.45c1.5,1.5,3.94,1.5,5.45,0Zm-13.79,13.79c1.5-1.5,1.5-3.94,0-5.45-1.5-1.5-3.94-1.5-5.45,0s-1.5,3.94,0,5.45,3.94,1.5,5.45,0Zm-13.79,13.79c1.5-1.5,1.5-3.94,0-5.45-1.5-1.5-3.94-1.5-5.45,0-1.5,1.5-1.5,3.94,0,5.45s3.94,1.5,5.45,0Zm-13.79,13.79c1.5-1.5,1.5-3.94,0-5.45s-3.94-1.5-5.45,0c-1.5,1.5-1.5,3.94,0,5.45,1.5,1.5,3.94,1.5,5.45,0Zm-13.79,13.79c1.5-1.5,1.5-3.94,0-5.45-1.5-1.5-3.94-1.5-5.45,0-1.5,1.5-1.5,3.94,0,5.45,1.5,1.5,3.94,1.5,5.45,0Zm191.4-209.44c1.5-1.5,1.5-3.94,0-5.45-1.5-1.5-3.94-1.5-5.45,0s-1.5,3.94,0,5.45,3.94,1.5,5.45,0Zm-13.79,13.79c1.5-1.5,1.5-3.94,0-5.45-1.5-1.5-3.94-1.5-5.45,0-1.5,1.5-1.5,3.94,0,5.45,1.5,1.5,3.94,1.5,5.45,0Zm-13.79,13.79c1.5-1.5,1.5-3.94,0-5.45s-3.94-1.5-5.45,0-1.5,3.94,0,5.45,3.94,1.5,5.45,0Zm-13.79,13.79c1.5-1.5,1.5-3.94,0-5.45s-3.94-1.5-5.45,0-1.5,3.94,0,5.45,3.94,1.5,5.45,0Zm-13.79,13.79c1.5-1.5,1.5-3.94,0-5.45s-3.94-1.5-5.45,0c-1.5,1.5-1.5,3.94,0,5.45s3.94,1.5,5.45,0Zm-13.79,13.79c1.5-1.5,1.5-3.94,0-5.45-1.5-1.5-3.94-1.5-5.45,0-1.5,1.5-1.5,3.94,0,5.45s3.94,1.5,5.45,0Zm-13.79,13.79c1.5-1.5,1.5-3.94,0-5.45-1.5-1.5-3.94-1.5-5.45,0-1.5,1.5-1.5,3.94,0,5.45,1.5,1.5,3.94,1.5,5.45,0Zm-13.79,13.79c1.5-1.5,1.5-3.94,0-5.45-1.5-1.5-3.94-1.5-5.45,0-1.5,1.5-1.5,3.94,0,5.45,1.5,1.5,3.94,1.5,5.45,0Zm-13.79,13.79c1.5-1.5,1.5-3.94,0-5.45-1.5-1.5-3.94-1.5-5.45,0-1.5,1.5-1.5,3.94,0,5.45,1.5,1.5,3.94,1.5,5.45,0Zm-13.79,13.79c1.5-1.5,1.5-3.94,0-5.45-1.5-1.5-3.94-1.5-5.45,0-1.5,1.5-1.5,3.94,0,5.45s3.94,1.5,5.45,0Zm-13.79,13.79c1.5-1.5,1.5-3.94,0-5.45s-3.94-1.5-5.45,0c-1.5,1.5-1.5,3.94,0,5.45s3.94,1.5,5.45,0Zm-13.79,13.79c1.5-1.5,1.5-3.94,0-5.45s-3.94-1.5-5.45,0c-1.5,1.5-1.5,3.94,0,5.45,1.5,1.5,3.94,1.5,5.45,0Zm-13.79,13.79c1.5-1.5,1.5-3.94,0-5.45-1.5-1.5-3.94-1.5-5.45,0s-1.5,3.94,0,5.45,3.94,1.5,5.45,0Zm-13.79,13.79c1.5-1.5,1.5-3.94,0-5.45s-3.94-1.5-5.45,0c-1.5,1.5-1.5,3.94,0,5.45,1.5,1.5,3.94,1.5,5.45,0Zm-13.79,13.79c1.5-1.5,1.5-3.94,0-5.45-1.5-1.5-3.94-1.5-5.45,0-1.5,1.5-1.5,3.94,0,5.45,1.5,1.5,3.94,1.5,5.45,0Zm175.74-195.49c1.5-1.5,1.5-3.94,0-5.45s-3.94-1.5-5.45,0c-1.5,1.5-1.5,3.94,0,5.45,1.5,1.5,3.94,1.5,5.45,0Zm-13.79,13.79c1.5-1.5,1.5-3.94,0-5.45-1.5-1.5-3.94-1.5-5.45,0-1.5,1.5-1.5,3.94,0,5.45,1.5,1.5,3.94,1.5,5.45,0Zm-13.79,13.79c1.5-1.5,1.5-3.94,0-5.45-1.5-1.5-3.94-1.5-5.45,0-1.5,1.5-1.5,3.94,0,5.45s3.94,1.5,5.45,0Zm-13.79,13.79c1.5-1.5,1.5-3.94,0-5.45-1.5-1.5-3.94-1.5-5.45,0-1.5,1.5-1.5,3.94,0,5.45,1.5,1.5,3.94,1.5,5.45,0Zm-13.79,13.79c1.5-1.5,1.5-3.94,0-5.45s-3.94-1.5-5.45,0c-1.5,1.5-1.5,3.94,0,5.45,1.5,1.5,3.94,1.5,5.45,0Zm-13.79,13.79c1.5-1.5,1.5-3.94,0-5.45s-3.94-1.5-5.45,0c-1.5,1.5-1.5,3.94,0,5.45,1.5,1.5,3.94,1.5,5.45,0Zm-13.79,13.79c1.5-1.5,1.5-3.94,0-5.45s-3.94-1.5-5.45,0-1.5,3.94,0,5.45c1.5,1.5,3.94,1.5,5.45,0Zm-13.79,13.79c1.5-1.5,1.5-3.94,0-5.45-1.5-1.5-3.94-1.5-5.45,0-1.5,1.5-1.5,3.94,0,5.45,1.5,1.5,3.94,1.5,5.45,0Zm-13.79,13.79c1.5-1.5,1.5-3.94,0-5.45-1.5-1.5-3.94-1.5-5.45,0-1.5,1.5-1.5,3.94,0,5.45,1.5,1.5,3.94,1.5,5.45,0Zm-13.79,13.79c1.5-1.5,1.5-3.94,0-5.45-1.5-1.5-3.94-1.5-5.45,0-1.5,1.5-1.5,3.94,0,5.45,1.5,1.5,3.94,1.5,5.45,0Zm-13.79,13.79c1.5-1.5,1.5-3.94,0-5.45-1.5-1.5-3.94-1.5-5.45,0-1.5,1.5-1.5,3.94,0,5.45,1.5,1.5,3.94,1.5,5.45,0Zm-13.79,13.79c1.5-1.5,1.5-3.94,0-5.45s-3.94-1.5-5.45,0-1.5,3.94,0,5.45,3.94,1.5,5.45,0Zm-13.79,13.79c1.5-1.5,1.5-3.94,0-5.45-1.5-1.5-3.94-1.5-5.45,0s-1.5,3.94,0,5.45c1.5,1.5,3.94,1.5,5.45,0Zm-13.79,13.79c1.5-1.5,1.5-3.94,0-5.45-1.5-1.5-3.94-1.5-5.45,0-1.5,1.5-1.5,3.94,0,5.45,1.5,1.5,3.94,1.5,5.45,0Zm-13.79,13.79c1.5-1.5,1.5-3.94,0-5.45-1.5-1.5-3.94-1.5-5.45,0-1.5,1.5-1.5,3.94,0,5.45,1.5,1.5,3.94,1.5,5.45,0Z"/>
        <path class="cls-13" d="M1062.3,518.86c1.5,1.5,1.5,3.94,0,5.45-1.5,1.5-3.94,1.5-5.45,0-1.5-1.5-1.5-3.94,0-5.45s3.94-1.5,5.45,0Zm8.34-13.79c-1.5,1.5-1.5,3.94,0,5.45,1.5,1.5,3.94,1.5,5.45,0s1.5-3.94,0-5.45c-1.5-1.5-3.94-1.5-5.45,0Zm13.79-13.79c-1.5,1.5-1.5,3.94,0,5.45,1.5,1.5,3.94,1.5,5.45,0s1.5-3.94,0-5.45c-1.5-1.5-3.94-1.5-5.45,0Zm13.79-13.79c-1.5,1.5-1.5,3.94,0,5.45,1.5,1.5,3.94,1.5,5.45,0,1.5-1.5,1.5-3.94,0-5.45s-3.94-1.5-5.45,0Zm13.79-13.79c-1.5,1.5-1.5,3.94,0,5.45s3.94,1.5,5.45,0c1.5-1.5,1.5-3.94,0-5.45-1.5-1.5-3.94-1.5-5.45,0Zm13.79-13.79c-1.5,1.5-1.5,3.94,0,5.45s3.94,1.5,5.45,0,1.5-3.94,0-5.45-3.94-1.5-5.45,0Zm13.79-13.79c-1.5,1.5-1.5,3.94,0,5.45,1.5,1.5,3.94,1.5,5.45,0,1.5-1.5,1.5-3.94,0-5.45s-3.94-1.5-5.45,0Zm13.79-13.79c-1.5,1.5-1.5,3.94,0,5.45,1.5,1.5,3.94,1.5,5.45,0s1.5-3.94,0-5.45c-1.5-1.5-3.94-1.5-5.45,0Zm13.79-13.79c-1.5,1.5-1.5,3.94,0,5.45,1.5,1.5,3.94,1.5,5.45,0,1.5-1.5,1.5-3.94,0-5.45s-3.94-1.5-5.45,0Zm13.79-13.79c-1.5,1.5-1.5,3.94,0,5.45,1.5,1.5,3.94,1.5,5.45,0,1.5-1.5,1.5-3.94,0-5.45-1.5-1.5-3.94-1.5-5.45,0Zm13.79-13.79c-1.5,1.5-1.5,3.94,0,5.45,1.5,1.5,3.94,1.5,5.45,0,1.5-1.5,1.5-3.94,0-5.45-1.5-1.5-3.94-1.5-5.45,0Zm13.79-13.79c-1.5,1.5-1.5,3.94,0,5.45,1.5,1.5,3.94,1.5,5.45,0s1.5-3.94,0-5.45-3.94-1.5-5.45,0Zm13.79-13.79c-1.5,1.5-1.5,3.94,0,5.45s3.94,1.5,5.45,0c1.5-1.5,1.5-3.94,0-5.45-1.5-1.5-3.94-1.5-5.45,0Zm13.79-13.79c-1.5,1.5-1.5,3.94,0,5.45,1.5,1.5,3.94,1.5,5.45,0s1.5-3.94,0-5.45-3.94-1.5-5.45,0Zm13.79-13.79c-1.5,1.5-1.5,3.94,0,5.45,1.5,1.5,3.94,1.5,5.45,0s1.5-3.94,0-5.45c-1.5-1.5-3.94-1.5-5.45,0Zm-175.74,195.49c-1.5,1.5-1.5,3.94,0,5.45,1.5,1.5,3.94,1.5,5.45,0,1.5-1.5,1.5-3.94,0-5.45-1.5-1.5-3.94-1.5-5.45,0Zm13.79-13.79c-1.5,1.5-1.5,3.94,0,5.45s3.94,1.5,5.45,0c1.5-1.5,1.5-3.94,0-5.45-1.5-1.5-3.94-1.5-5.45,0Zm13.79-13.79c-1.5,1.5-1.5,3.94,0,5.45,1.5,1.5,3.94,1.5,5.45,0,1.5-1.5,1.5-3.94,0-5.45-1.5-1.5-3.94-1.5-5.45,0Zm13.79-13.79c-1.5,1.5-1.5,3.94,0,5.45s3.94,1.5,5.45,0,1.5-3.94,0-5.45-3.94-1.5-5.45,0Zm13.79-13.79c-1.5,1.5-1.5,3.94,0,5.45,1.5,1.5,3.94,1.5,5.45,0s1.5-3.94,0-5.45c-1.5-1.5-3.94-1.5-5.45,0Zm13.79-13.79c-1.5,1.5-1.5,3.94,0,5.45s3.94,1.5,5.45,0,1.5-3.94,0-5.45-3.94-1.5-5.45,0Zm13.79-13.79c-1.5,1.5-1.5,3.94,0,5.45s3.94,1.5,5.45,0c1.5-1.5,1.5-3.94,0-5.45-1.5-1.5-3.94-1.5-5.45,0Zm13.79-13.79c-1.5,1.5-1.5,3.94,0,5.45s3.94,1.5,5.45,0c1.5-1.5,1.5-3.94,0-5.45-1.5-1.5-3.94-1.5-5.45,0Zm13.79-13.79c-1.5,1.5-1.5,3.94,0,5.45,1.5,1.5,3.94,1.5,5.45,0,1.5-1.5,1.5-3.94,0-5.45s-3.94-1.5-5.45,0Zm13.79-13.79c-1.5,1.5-1.5,3.94,0,5.45,1.5,1.5,3.94,1.5,5.45,0s1.5-3.94,0-5.45c-1.5-1.5-3.94-1.5-5.45,0Zm13.79-13.79c-1.5,1.5-1.5,3.94,0,5.45s3.94,1.5,5.45,0c1.5-1.5,1.5-3.94,0-5.45-1.5-1.5-3.94-1.5-5.45,0Zm13.79-13.79c-1.5,1.5-1.5,3.94,0,5.45,1.5,1.5,3.94,1.5,5.45,0,1.5-1.5,1.5-3.94,0-5.45s-3.94-1.5-5.45,0Zm13.79-13.79c-1.5,1.5-1.5,3.94,0,5.45,1.5,1.5,3.94,1.5,5.45,0s1.5-3.94,0-5.45-3.94-1.5-5.45,0Zm13.79-13.79c-1.5,1.5-1.5,3.94,0,5.45s3.94,1.5,5.45,0c1.5-1.5,1.5-3.94,0-5.45s-3.94-1.5-5.45,0Zm13.79-13.79c-1.5,1.5-1.5,3.94,0,5.45,1.5,1.5,3.94,1.5,5.45,0,1.5-1.5,1.5-3.94,0-5.45-1.5-1.5-3.94-1.5-5.45,0Zm-191.4,209.44c-1.5,1.5-1.5,3.94,0,5.45,1.5,1.5,3.94,1.5,5.45,0,1.5-1.5,1.5-3.94,0-5.45-1.5-1.5-3.94-1.5-5.45,0Zm13.79-13.79c-1.5,1.5-1.5,3.94,0,5.45,1.5,1.5,3.94,1.5,5.45,0,1.5-1.5,1.5-3.94,0-5.45-1.5-1.5-3.94-1.5-5.45,0Zm13.79-13.79c-1.5,1.5-1.5,3.94,0,5.45s3.94,1.5,5.45,0c1.5-1.5,1.5-3.94,0-5.45-1.5-1.5-3.94-1.5-5.45,0Zm13.79-13.79c-1.5,1.5-1.5,3.94,0,5.45,1.5,1.5,3.94,1.5,5.45,0,1.5-1.5,1.5-3.94,0-5.45s-3.94-1.5-5.45,0Zm13.79-13.79c-1.5,1.5-1.5,3.94,0,5.45,1.5,1.5,3.94,1.5,5.45,0,1.5-1.5,1.5-3.94,0-5.45s-3.94-1.5-5.45,0Zm13.79-13.79c-1.5,1.5-1.5,3.94,0,5.45,1.5,1.5,3.94,1.5,5.45,0,1.5-1.5,1.5-3.94,0-5.45-1.5-1.5-3.94-1.5-5.45,0Zm13.79-13.79c-1.5,1.5-1.5,3.94,0,5.45,1.5,1.5,3.94,1.5,5.45,0,1.5-1.5,1.5-3.94,0-5.45-1.5-1.5-3.94-1.5-5.45,0Zm13.79-13.79c-1.5,1.5-1.5,3.94,0,5.45s3.94,1.5,5.45,0c1.5-1.5,1.5-3.94,0-5.45s-3.94-1.5-5.45,0Zm13.79-13.79c-1.5,1.5-1.5,3.94,0,5.45s3.94,1.5,5.45,0c1.5-1.5,1.5-3.94,0-5.45-1.5-1.5-3.94-1.5-5.45,0Zm13.79-13.79c-1.5,1.5-1.5,3.94,0,5.45s3.94,1.5,5.45,0,1.5-3.94,0-5.45-3.94-1.5-5.45,0Zm13.79-13.79c-1.5,1.5-1.5,3.94,0,5.45,1.5,1.5,3.94,1.5,5.45,0s1.5-3.94,0-5.45-3.94-1.5-5.45,0Zm13.79-13.79c-1.5,1.5-1.5,3.94,0,5.45s3.94,1.5,5.45,0c1.5-1.5,1.5-3.94,0-5.45-1.5-1.5-3.94-1.5-5.45,0Zm13.79-13.79c-1.5,1.5-1.5,3.94,0,5.45,1.5,1.5,3.94,1.5,5.45,0,1.5-1.5,1.5-3.94,0-5.45s-3.94-1.5-5.45,0Zm13.79-13.79c-1.5,1.5-1.5,3.94,0,5.45s3.94,1.5,5.45,0c1.5-1.5,1.5-3.94,0-5.45-1.5-1.5-3.94-1.5-5.45,0Zm13.79-13.79c-1.5,1.5-1.5,3.94,0,5.45,1.5,1.5,3.94,1.5,5.45,0s1.5-3.94,0-5.45-3.94-1.5-5.45,0Zm-175.74,195.49c-1.5,1.5-1.5,3.94,0,5.45,1.5,1.5,3.94,1.5,5.45,0s1.5-3.94,0-5.45-3.94-1.5-5.45,0Zm13.79-13.79c-1.5,1.5-1.5,3.94,0,5.45s3.94,1.5,5.45,0c1.5-1.5,1.5-3.94,0-5.45-1.5-1.5-3.94-1.5-5.45,0Zm13.79-13.79c-1.5,1.5-1.5,3.94,0,5.45,1.5,1.5,3.94,1.5,5.45,0,1.5-1.5,1.5-3.94,0-5.45-1.5-1.5-3.94-1.5-5.45,0Zm13.79-13.79c-1.5,1.5-1.5,3.94,0,5.45,1.5,1.5,3.94,1.5,5.45,0s1.5-3.94,0-5.45-3.94-1.5-5.45,0Zm13.79-13.79c-1.5,1.5-1.5,3.94,0,5.45s3.94,1.5,5.45,0,1.5-3.94,0-5.45c-1.5-1.5-3.94-1.5-5.45,0Zm13.79-13.79c-1.5,1.5-1.5,3.94,0,5.45s3.94,1.5,5.45,0,1.5-3.94,0-5.45c-1.5-1.5-3.94-1.5-5.45,0Zm13.79-13.79c-1.5,1.5-1.5,3.94,0,5.45s3.94,1.5,5.45,0,1.5-3.94,0-5.45c-1.5-1.5-3.94-1.5-5.45,0Zm13.79-13.79c-1.5,1.5-1.5,3.94,0,5.45,1.5,1.5,3.94,1.5,5.45,0s1.5-3.94,0-5.45c-1.5-1.5-3.94-1.5-5.45,0Zm13.79-13.79c-1.5,1.5-1.5,3.94,0,5.45,1.5,1.5,3.94,1.5,5.45,0s1.5-3.94,0-5.45c-1.5-1.5-3.94-1.5-5.45,0Zm13.79-13.79c-1.5,1.5-1.5,3.94,0,5.45s3.94,1.5,5.45,0c1.5-1.5,1.5-3.94,0-5.45-1.5-1.5-3.94-1.5-5.45,0Zm13.79-13.79c-1.5,1.5-1.5,3.94,0,5.45,1.5,1.5,3.94,1.5,5.45,0,1.5-1.5,1.5-3.94,0-5.45s-3.94-1.5-5.45,0Zm13.79-13.79c-1.5,1.5-1.5,3.94,0,5.45s3.94,1.5,5.45,0,1.5-3.94,0-5.45c-1.5-1.5-3.94-1.5-5.45,0Zm13.79-13.79c-1.5,1.5-1.5,3.94,0,5.45,1.5,1.5,3.94,1.5,5.45,0s1.5-3.94,0-5.45c-1.5-1.5-3.94-1.5-5.45,0Zm13.79-13.79c-1.5,1.5-1.5,3.94,0,5.45,1.5,1.5,3.94,1.5,5.45,0s1.5-3.94,0-5.45-3.94-1.5-5.45,0Zm13.79-13.79c-1.5,1.5-1.5,3.94,0,5.45s3.94,1.5,5.45,0c1.5-1.5,1.5-3.94,0-5.45-1.5-1.5-3.94-1.5-5.45,0Zm-191.4,209.44c-1.5,1.5-1.5,3.94,0,5.45,1.5,1.5,3.94,1.5,5.45,0s1.5-3.94,0-5.45-3.94-1.5-5.45,0Zm13.79-13.79c-1.5,1.5-1.5,3.94,0,5.45s3.94,1.5,5.45,0c1.5-1.5,1.5-3.94,0-5.45s-3.94-1.5-5.45,0Zm13.79-13.79c-1.5,1.5-1.5,3.94,0,5.45,1.5,1.5,3.94,1.5,5.45,0,1.5-1.5,1.5-3.94,0-5.45-1.5-1.5-3.94-1.5-5.45,0Zm13.79-13.79c-1.5,1.5-1.5,3.94,0,5.45s3.94,1.5,5.45,0,1.5-3.94,0-5.45c-1.5-1.5-3.94-1.5-5.45,0Zm13.79-13.79c-1.5,1.5-1.5,3.94,0,5.45,1.5,1.5,3.94,1.5,5.45,0s1.5-3.94,0-5.45c-1.5-1.5-3.94-1.5-5.45,0Zm13.79-13.79c-1.5,1.5-1.5,3.94,0,5.45,1.5,1.5,3.94,1.5,5.45,0,1.5-1.5,1.5-3.94,0-5.45s-3.94-1.5-5.45,0Zm13.79-13.79c-1.5,1.5-1.5,3.94,0,5.45s3.94,1.5,5.45,0,1.5-3.94,0-5.45-3.94-1.5-5.45,0Zm13.79-13.79c-1.5,1.5-1.5,3.94,0,5.45s3.94,1.5,5.45,0,1.5-3.94,0-5.45-3.94-1.5-5.45,0Zm13.79-13.79c-1.5,1.5-1.5,3.94,0,5.45,1.5,1.5,3.94,1.5,5.45,0s1.5-3.94,0-5.45-3.94-1.5-5.45,0Zm13.79-13.79c-1.5,1.5-1.5,3.94,0,5.45s3.94,1.5,5.45,0c1.5-1.5,1.5-3.94,0-5.45s-3.94-1.5-5.45,0Zm13.79-13.79c-1.5,1.5-1.5,3.94,0,5.45,1.5,1.5,3.94,1.5,5.45,0,1.5-1.5,1.5-3.94,0-5.45-1.5-1.5-3.94-1.5-5.45,0Zm13.79-13.79c-1.5,1.5-1.5,3.94,0,5.45s3.94,1.5,5.45,0,1.5-3.94,0-5.45c-1.5-1.5-3.94-1.5-5.45,0Zm13.79-13.79c-1.5,1.5-1.5,3.94,0,5.45s3.94,1.5,5.45,0c1.5-1.5,1.5-3.94,0-5.45-1.5-1.5-3.94-1.5-5.45,0Zm13.79-13.79c-1.5,1.5-1.5,3.94,0,5.45s3.94,1.5,5.45,0c1.5-1.5,1.5-3.94,0-5.45-1.5-1.5-3.94-1.5-5.45,0Zm13.79-13.79c-1.5,1.5-1.5,3.94,0,5.45,1.5,1.5,3.94,1.5,5.45,0s1.5-3.94,0-5.45c-1.5-1.5-3.94-1.5-5.45,0Zm-175.74,195.49c-1.5,1.5-1.5,3.94,0,5.45,1.5,1.5,3.94,1.5,5.45,0s1.5-3.94,0-5.45-3.94-1.5-5.45,0Zm13.79-13.79c-1.5,1.5-1.5,3.94,0,5.45s3.94,1.5,5.45,0c1.5-1.5,1.5-3.94,0-5.45-1.5-1.5-3.94-1.5-5.45,0Zm13.79-13.79c-1.5,1.5-1.5,3.94,0,5.45s3.94,1.5,5.45,0,1.5-3.94,0-5.45-3.94-1.5-5.45,0Zm13.79-13.79c-1.5,1.5-1.5,3.94,0,5.45,1.5,1.5,3.94,1.5,5.45,0,1.5-1.5,1.5-3.94,0-5.45s-3.94-1.5-5.45,0Zm13.79-13.79c-1.5,1.5-1.5,3.94,0,5.45,1.5,1.5,3.94,1.5,5.45,0,1.5-1.5,1.5-3.94,0-5.45-1.5-1.5-3.94-1.5-5.45,0Zm13.79-13.79c-1.5,1.5-1.5,3.94,0,5.45,1.5,1.5,3.94,1.5,5.45,0,1.5-1.5,1.5-3.94,0-5.45-1.5-1.5-3.94-1.5-5.45,0Zm13.79-13.79c-1.5,1.5-1.5,3.94,0,5.45,1.5,1.5,3.94,1.5,5.45,0s1.5-3.94,0-5.45-3.94-1.5-5.45,0Zm13.79-13.79c-1.5,1.5-1.5,3.94,0,5.45s3.94,1.5,5.45,0,1.5-3.94,0-5.45-3.94-1.5-5.45,0Zm13.79-13.79c-1.5,1.5-1.5,3.94,0,5.45,1.5,1.5,3.94,1.5,5.45,0,1.5-1.5,1.5-3.94,0-5.45s-3.94-1.5-5.45,0Zm13.79-13.79c-1.5,1.5-1.5,3.94,0,5.45s3.94,1.5,5.45,0,1.5-3.94,0-5.45c-1.5-1.5-3.94-1.5-5.45,0Zm13.79-13.79c-1.5,1.5-1.5,3.94,0,5.45s3.94,1.5,5.45,0c1.5-1.5,1.5-3.94,0-5.45-1.5-1.5-3.94-1.5-5.45,0Zm13.79-13.79c-1.5,1.5-1.5,3.94,0,5.45,1.5,1.5,3.94,1.5,5.45,0,1.5-1.5,1.5-3.94,0-5.45-1.5-1.5-3.94-1.5-5.45,0Zm13.79-13.79c-1.5,1.5-1.5,3.94,0,5.45s3.94,1.5,5.45,0c1.5-1.5,1.5-3.94,0-5.45-1.5-1.5-3.94-1.5-5.45,0Zm13.79-13.79c-1.5,1.5-1.5,3.94,0,5.45s3.94,1.5,5.45,0c1.5-1.5,1.5-3.94,0-5.45-1.5-1.5-3.94-1.5-5.45,0Zm13.79-13.79c-1.5,1.5-1.5,3.94,0,5.45s3.94,1.5,5.45,0c1.5-1.5,1.5-3.94,0-5.45-1.5-1.5-3.94-1.5-5.45,0Zm-191.4,209.44c-1.5,1.5-1.5,3.94,0,5.45,1.5,1.5,3.94,1.5,5.45,0,1.5-1.5,1.5-3.94,0-5.45-1.5-1.5-3.94-1.5-5.45,0Zm13.79-13.79c-1.5,1.5-1.5,3.94,0,5.45,1.5,1.5,3.94,1.5,5.45,0,1.5-1.5,1.5-3.94,0-5.45-1.5-1.5-3.94-1.5-5.45,0Zm13.79-13.79c-1.5,1.5-1.5,3.94,0,5.45,1.5,1.5,3.94,1.5,5.45,0,1.5-1.5,1.5-3.94,0-5.45-1.5-1.5-3.94-1.5-5.45,0Zm13.79-13.79c-1.5,1.5-1.5,3.94,0,5.45,1.5,1.5,3.94,1.5,5.45,0s1.5-3.94,0-5.45-3.94-1.5-5.45,0Zm13.79-13.79c-1.5,1.5-1.5,3.94,0,5.45s3.94,1.5,5.45,0,1.5-3.94,0-5.45-3.94-1.5-5.45,0Zm13.79-13.79c-1.5,1.5-1.5,3.94,0,5.45,1.5,1.5,3.94,1.5,5.45,0,1.5-1.5,1.5-3.94,0-5.45-1.5-1.5-3.94-1.5-5.45,0Zm13.79-13.79c-1.5,1.5-1.5,3.94,0,5.45,1.5,1.5,3.94,1.5,5.45,0,1.5-1.5,1.5-3.94,0-5.45-1.5-1.5-3.94-1.5-5.45,0Zm13.79-13.79c-1.5,1.5-1.5,3.94,0,5.45,1.5,1.5,3.94,1.5,5.45,0,1.5-1.5,1.5-3.94,0-5.45s-3.94-1.5-5.45,0Zm13.79-13.79c-1.5,1.5-1.5,3.94,0,5.45s3.94,1.5,5.45,0,1.5-3.94,0-5.45c-1.5-1.5-3.94-1.5-5.45,0Zm13.79-13.79c-1.5,1.5-1.5,3.94,0,5.45s3.94,1.5,5.45,0c1.5-1.5,1.5-3.94,0-5.45-1.5-1.5-3.94-1.5-5.45,0Zm13.79-13.79c-1.5,1.5-1.5,3.94,0,5.45s3.94,1.5,5.45,0,1.5-3.94,0-5.45-3.94-1.5-5.45,0Zm13.79-13.79c-1.5,1.5-1.5,3.94,0,5.45,1.5,1.5,3.94,1.5,5.45,0,1.5-1.5,1.5-3.94,0-5.45s-3.94-1.5-5.45,0Zm13.79-13.79c-1.5,1.5-1.5,3.94,0,5.45,1.5,1.5,3.94,1.5,5.45,0s1.5-3.94,0-5.45c-1.5-1.5-3.94-1.5-5.45,0Zm13.79-13.79c-1.5,1.5-1.5,3.94,0,5.45,1.5,1.5,3.94,1.5,5.45,0,1.5-1.5,1.5-3.94,0-5.45s-3.94-1.5-5.45,0Zm13.79-13.79c-1.5,1.5-1.5,3.94,0,5.45,1.5,1.5,3.94,1.5,5.45,0,1.5-1.5,1.5-3.94,0-5.45s-3.94-1.5-5.45,0Zm-175.74,195.49c-1.5,1.5-1.5,3.94,0,5.45,1.5,1.5,3.94,1.5,5.45,0,1.5-1.5,1.5-3.94,0-5.45-1.5-1.5-3.94-1.5-5.45,0Zm13.79-13.79c-1.5,1.5-1.5,3.94,0,5.45s3.94,1.5,5.45,0c1.5-1.5,1.5-3.94,0-5.45s-3.94-1.5-5.45,0Zm13.79-13.79c-1.5,1.5-1.5,3.94,0,5.45s3.94,1.5,5.45,0,1.5-3.94,0-5.45-3.94-1.5-5.45,0Zm13.79-13.79c-1.5,1.5-1.5,3.94,0,5.45,1.5,1.5,3.94,1.5,5.45,0,1.5-1.5,1.5-3.94,0-5.45s-3.94-1.5-5.45,0Zm13.79-13.79c-1.5,1.5-1.5,3.94,0,5.45,1.5,1.5,3.94,1.5,5.45,0,1.5-1.5,1.5-3.94,0-5.45s-3.94-1.5-5.45,0Zm13.79-13.79c-1.5,1.5-1.5,3.94,0,5.45s3.94,1.5,5.45,0,1.5-3.94,0-5.45c-1.5-1.5-3.94-1.5-5.45,0Zm13.79-13.79c-1.5,1.5-1.5,3.94,0,5.45s3.94,1.5,5.45,0c1.5-1.5,1.5-3.94,0-5.45-1.5-1.5-3.94-1.5-5.45,0Zm13.79-13.79c-1.5,1.5-1.5,3.94,0,5.45,1.5,1.5,3.94,1.5,5.45,0,1.5-1.5,1.5-3.94,0-5.45-1.5-1.5-3.94-1.5-5.45,0Zm13.79-13.79c-1.5,1.5-1.5,3.94,0,5.45s3.94,1.5,5.45,0c1.5-1.5,1.5-3.94,0-5.45-1.5-1.5-3.94-1.5-5.45,0Zm13.79-13.79c-1.5,1.5-1.5,3.94,0,5.45s3.94,1.5,5.45,0,1.5-3.94,0-5.45-3.94-1.5-5.45,0Zm13.79-13.79c-1.5,1.5-1.5,3.94,0,5.45s3.94,1.5,5.45,0,1.5-3.94,0-5.45-3.94-1.5-5.45,0Zm13.79-13.79c-1.5,1.5-1.5,3.94,0,5.45s3.94,1.5,5.45,0,1.5-3.94,0-5.45-3.94-1.5-5.45,0Zm13.79-13.79c-1.5,1.5-1.5,3.94,0,5.45s3.94,1.5,5.45,0c1.5-1.5,1.5-3.94,0-5.45-1.5-1.5-3.94-1.5-5.45,0Zm13.79-13.79c-1.5,1.5-1.5,3.94,0,5.45,1.5,1.5,3.94,1.5,5.45,0s1.5-3.94,0-5.45c-1.5-1.5-3.94-1.5-5.45,0Zm13.79-13.79c-1.5,1.5-1.5,3.94,0,5.45,1.5,1.5,3.94,1.5,5.45,0s1.5-3.94,0-5.45c-1.5-1.5-3.94-1.5-5.45,0Zm-191.4,209.44c-1.5,1.5-1.5,3.94,0,5.45s3.94,1.5,5.45,0,1.5-3.94,0-5.45-3.94-1.5-5.45,0Zm13.79-13.79c-1.5,1.5-1.5,3.94,0,5.45s3.94,1.5,5.45,0c1.5-1.5,1.5-3.94,0-5.45-1.5-1.5-3.94-1.5-5.45,0Zm13.79-13.79c-1.5,1.5-1.5,3.94,0,5.45,1.5,1.5,3.94,1.5,5.45,0s1.5-3.94,0-5.45-3.94-1.5-5.45,0Zm13.79-13.79c-1.5,1.5-1.5,3.94,0,5.45,1.5,1.5,3.94,1.5,5.45,0,1.5-1.5,1.5-3.94,0-5.45-1.5-1.5-3.94-1.5-5.45,0Zm13.79-13.79c-1.5,1.5-1.5,3.94,0,5.45,1.5,1.5,3.94,1.5,5.45,0,1.5-1.5,1.5-3.94,0-5.45s-3.94-1.5-5.45,0Zm13.79-13.79c-1.5,1.5-1.5,3.94,0,5.45,1.5,1.5,3.94,1.5,5.45,0s1.5-3.94,0-5.45c-1.5-1.5-3.94-1.5-5.45,0Zm13.79-13.79c-1.5,1.5-1.5,3.94,0,5.45,1.5,1.5,3.94,1.5,5.45,0s1.5-3.94,0-5.45c-1.5-1.5-3.94-1.5-5.45,0Zm13.79-13.79c-1.5,1.5-1.5,3.94,0,5.45,1.5,1.5,3.94,1.5,5.45,0s1.5-3.94,0-5.45-3.94-1.5-5.45,0Zm13.79-13.79c-1.5,1.5-1.5,3.94,0,5.45,1.5,1.5,3.94,1.5,5.45,0,1.5-1.5,1.5-3.94,0-5.45-1.5-1.5-3.94-1.5-5.45,0Zm13.79-13.79c-1.5,1.5-1.5,3.94,0,5.45,1.5,1.5,3.94,1.5,5.45,0s1.5-3.94,0-5.45-3.94-1.5-5.45,0Zm13.79-13.79c-1.5,1.5-1.5,3.94,0,5.45s3.94,1.5,5.45,0,1.5-3.94,0-5.45-3.94-1.5-5.45,0Zm13.79-13.79c-1.5,1.5-1.5,3.94,0,5.45s3.94,1.5,5.45,0,1.5-3.94,0-5.45-3.94-1.5-5.45,0Zm13.79-13.79c-1.5,1.5-1.5,3.94,0,5.45,1.5,1.5,3.94,1.5,5.45,0,1.5-1.5,1.5-3.94,0-5.45s-3.94-1.5-5.45,0Zm13.79-13.79c-1.5,1.5-1.5,3.94,0,5.45s3.94,1.5,5.45,0c1.5-1.5,1.5-3.94,0-5.45-1.5-1.5-3.94-1.5-5.45,0Zm13.79-13.79c-1.5,1.5-1.5,3.94,0,5.45s3.94,1.5,5.45,0c1.5-1.5,1.5-3.94,0-5.45s-3.94-1.5-5.45,0Zm-175.74,195.49c-1.5,1.5-1.5,3.94,0,5.45s3.94,1.5,5.45,0,1.5-3.94,0-5.45c-1.5-1.5-3.94-1.5-5.45,0Zm13.79-13.79c-1.5,1.5-1.5,3.94,0,5.45,1.5,1.5,3.94,1.5,5.45,0,1.5-1.5,1.5-3.94,0-5.45s-3.94-1.5-5.45,0Zm13.79-13.79c-1.5,1.5-1.5,3.94,0,5.45,1.5,1.5,3.94,1.5,5.45,0,1.5-1.5,1.5-3.94,0-5.45-1.5-1.5-3.94-1.5-5.45,0Zm13.79-13.79c-1.5,1.5-1.5,3.94,0,5.45s3.94,1.5,5.45,0c1.5-1.5,1.5-3.94,0-5.45-1.5-1.5-3.94-1.5-5.45,0Zm13.79-13.79c-1.5,1.5-1.5,3.94,0,5.45,1.5,1.5,3.94,1.5,5.45,0s1.5-3.94,0-5.45-3.94-1.5-5.45,0Zm13.79-13.79c-1.5,1.5-1.5,3.94,0,5.45s3.94,1.5,5.45,0c1.5-1.5,1.5-3.94,0-5.45-1.5-1.5-3.94-1.5-5.45,0Zm13.79-13.79c-1.5,1.5-1.5,3.94,0,5.45,1.5,1.5,3.94,1.5,5.45,0s1.5-3.94,0-5.45-3.94-1.5-5.45,0Zm13.79-13.79c-1.5,1.5-1.5,3.94,0,5.45s3.94,1.5,5.45,0,1.5-3.94,0-5.45c-1.5-1.5-3.94-1.5-5.45,0Zm13.79-13.79c-1.5,1.5-1.5,3.94,0,5.45,1.5,1.5,3.94,1.5,5.45,0s1.5-3.94,0-5.45-3.94-1.5-5.45,0Zm13.79-13.79c-1.5,1.5-1.5,3.94,0,5.45,1.5,1.5,3.94,1.5,5.45,0,1.5-1.5,1.5-3.94,0-5.45-1.5-1.5-3.94-1.5-5.45,0Zm13.79-13.79c-1.5,1.5-1.5,3.94,0,5.45s3.94,1.5,5.45,0c1.5-1.5,1.5-3.94,0-5.45-1.5-1.5-3.94-1.5-5.45,0Zm13.79-13.79c-1.5,1.5-1.5,3.94,0,5.45,1.5,1.5,3.94,1.5,5.45,0,1.5-1.5,1.5-3.94,0-5.45-1.5-1.5-3.94-1.5-5.45,0Zm13.79-13.79c-1.5,1.5-1.5,3.94,0,5.45s3.94,1.5,5.45,0,1.5-3.94,0-5.45c-1.5-1.5-3.94-1.5-5.45,0Zm13.79-13.79c-1.5,1.5-1.5,3.94,0,5.45s3.94,1.5,5.45,0,1.5-3.94,0-5.45c-1.5-1.5-3.94-1.5-5.45,0Zm13.79-13.79c-1.5,1.5-1.5,3.94,0,5.45s3.94,1.5,5.45,0,1.5-3.94,0-5.45-3.94-1.5-5.45,0Zm-191.4,209.44c-1.5,1.5-1.5,3.94,0,5.45,1.5,1.5,3.94,1.5,5.45,0s1.5-3.94,0-5.45c-1.5-1.5-3.94-1.5-5.45,0Zm13.79-13.79c-1.5,1.5-1.5,3.94,0,5.45s3.94,1.5,5.45,0c1.5-1.5,1.5-3.94,0-5.45-1.5-1.5-3.94-1.5-5.45,0Zm13.79-13.79c-1.5,1.5-1.5,3.94,0,5.45,1.5,1.5,3.94,1.5,5.45,0s1.5-3.94,0-5.45c-1.5-1.5-3.94-1.5-5.45,0Zm13.79-13.79c-1.5,1.5-1.5,3.94,0,5.45s3.94,1.5,5.45,0c1.5-1.5,1.5-3.94,0-5.45-1.5-1.5-3.94-1.5-5.45,0Zm13.79-13.79c-1.5,1.5-1.5,3.94,0,5.45s3.94,1.5,5.45,0c1.5-1.5,1.5-3.94,0-5.45-1.5-1.5-3.94-1.5-5.45,0Zm13.79-13.79c-1.5,1.5-1.5,3.94,0,5.45,1.5,1.5,3.94,1.5,5.45,0s1.5-3.94,0-5.45-3.94-1.5-5.45,0Zm13.79-13.79c-1.5,1.5-1.5,3.94,0,5.45,1.5,1.5,3.94,1.5,5.45,0s1.5-3.94,0-5.45c-1.5-1.5-3.94-1.5-5.45,0Zm13.79-13.79c-1.5,1.5-1.5,3.94,0,5.45,1.5,1.5,3.94,1.5,5.45,0,1.5-1.5,1.5-3.94,0-5.45s-3.94-1.5-5.45,0Zm13.79-13.79c-1.5,1.5-1.5,3.94,0,5.45,1.5,1.5,3.94,1.5,5.45,0,1.5-1.5,1.5-3.94,0-5.45-1.5-1.5-3.94-1.5-5.45,0Zm13.79-13.79c-1.5,1.5-1.5,3.94,0,5.45s3.94,1.5,5.45,0c1.5-1.5,1.5-3.94,0-5.45s-3.94-1.5-5.45,0Zm13.79-13.79c-1.5,1.5-1.5,3.94,0,5.45,1.5,1.5,3.94,1.5,5.45,0,1.5-1.5,1.5-3.94,0-5.45-1.5-1.5-3.94-1.5-5.45,0Zm13.79-13.79c-1.5,1.5-1.5,3.94,0,5.45s3.94,1.5,5.45,0,1.5-3.94,0-5.45c-1.5-1.5-3.94-1.5-5.45,0Zm13.79-13.79c-1.5,1.5-1.5,3.94,0,5.45,1.5,1.5,3.94,1.5,5.45,0s1.5-3.94,0-5.45-3.94-1.5-5.45,0Zm13.79-13.79c-1.5,1.5-1.5,3.94,0,5.45,1.5,1.5,3.94,1.5,5.45,0,1.5-1.5,1.5-3.94,0-5.45s-3.94-1.5-5.45,0Zm13.79-13.79c-1.5,1.5-1.5,3.94,0,5.45s3.94,1.5,5.45,0c1.5-1.5,1.5-3.94,0-5.45-1.5-1.5-3.94-1.5-5.45,0Zm-175.74,195.49c-1.5,1.5-1.5,3.94,0,5.45s3.94,1.5,5.45,0,1.5-3.94,0-5.45c-1.5-1.5-3.94-1.5-5.45,0Zm13.79-13.79c-1.5,1.5-1.5,3.94,0,5.45s3.94,1.5,5.45,0,1.5-3.94,0-5.45-3.94-1.5-5.45,0Zm13.79-13.79c-1.5,1.5-1.5,3.94,0,5.45,1.5,1.5,3.94,1.5,5.45,0,1.5-1.5,1.5-3.94,0-5.45s-3.94-1.5-5.45,0Zm13.79-13.79c-1.5,1.5-1.5,3.94,0,5.45s3.94,1.5,5.45,0c1.5-1.5,1.5-3.94,0-5.45-1.5-1.5-3.94-1.5-5.45,0Zm13.79-13.79c-1.5,1.5-1.5,3.94,0,5.45,1.5,1.5,3.94,1.5,5.45,0s1.5-3.94,0-5.45-3.94-1.5-5.45,0Zm13.79-13.79c-1.5,1.5-1.5,3.94,0,5.45s3.94,1.5,5.45,0c1.5-1.5,1.5-3.94,0-5.45-1.5-1.5-3.94-1.5-5.45,0Zm13.79-13.79c-1.5,1.5-1.5,3.94,0,5.45,1.5,1.5,3.94,1.5,5.45,0,1.5-1.5,1.5-3.94,0-5.45-1.5-1.5-3.94-1.5-5.45,0Zm13.79-13.79c-1.5,1.5-1.5,3.94,0,5.45s3.94,1.5,5.45,0c1.5-1.5,1.5-3.94,0-5.45-1.5-1.5-3.94-1.5-5.45,0Zm13.79-13.79c-1.5,1.5-1.5,3.94,0,5.45,1.5,1.5,3.94,1.5,5.45,0s1.5-3.94,0-5.45c-1.5-1.5-3.94-1.5-5.45,0Zm13.79-13.79c-1.5,1.5-1.5,3.94,0,5.45s3.94,1.5,5.45,0c1.5-1.5,1.5-3.94,0-5.45-1.5-1.5-3.94-1.5-5.45,0Zm13.79-13.79c-1.5,1.5-1.5,3.94,0,5.45s3.94,1.5,5.45,0,1.5-3.94,0-5.45-3.94-1.5-5.45,0Zm13.79-13.79c-1.5,1.5-1.5,3.94,0,5.45,1.5,1.5,3.94,1.5,5.45,0,1.5-1.5,1.5-3.94,0-5.45s-3.94-1.5-5.45,0Zm13.79-13.79c-1.5,1.5-1.5,3.94,0,5.45,1.5,1.5,3.94,1.5,5.45,0,1.5-1.5,1.5-3.94,0-5.45s-3.94-1.5-5.45,0Zm13.79-13.79c-1.5,1.5-1.5,3.94,0,5.45,1.5,1.5,3.94,1.5,5.45,0,1.5-1.5,1.5-3.94,0-5.45s-3.94-1.5-5.45,0Zm13.79-13.79c-1.5,1.5-1.5,3.94,0,5.45,1.5,1.5,3.94,1.5,5.45,0,1.5-1.5,1.5-3.94,0-5.45-1.5-1.5-3.94-1.5-5.45,0Zm-191.4,209.44c-1.5,1.5-1.5,3.94,0,5.45s3.94,1.5,5.45,0,1.5-3.94,0-5.45c-1.5-1.5-3.94-1.5-5.45,0Zm13.79-13.79c-1.5,1.5-1.5,3.94,0,5.45,1.5,1.5,3.94,1.5,5.45,0s1.5-3.94,0-5.45c-1.5-1.5-3.94-1.5-5.45,0Zm13.79-13.79c-1.5,1.5-1.5,3.94,0,5.45s3.94,1.5,5.45,0,1.5-3.94,0-5.45c-1.5-1.5-3.94-1.5-5.45,0Zm13.79-13.79c-1.5,1.5-1.5,3.94,0,5.45,1.5,1.5,3.94,1.5,5.45,0,1.5-1.5,1.5-3.94,0-5.45s-3.94-1.5-5.45,0Zm13.79-13.79c-1.5,1.5-1.5,3.94,0,5.45,1.5,1.5,3.94,1.5,5.45,0,1.5-1.5,1.5-3.94,0-5.45s-3.94-1.5-5.45,0Zm13.79-13.79c-1.5,1.5-1.5,3.94,0,5.45s3.94,1.5,5.45,0c1.5-1.5,1.5-3.94,0-5.45-1.5-1.5-3.94-1.5-5.45,0Zm13.79-13.79c-1.5,1.5-1.5,3.94,0,5.45,1.5,1.5,3.94,1.5,5.45,0,1.5-1.5,1.5-3.94,0-5.45-1.5-1.5-3.94-1.5-5.45,0Zm13.79-13.79c-1.5,1.5-1.5,3.94,0,5.45s3.94,1.5,5.45,0,1.5-3.94,0-5.45c-1.5-1.5-3.94-1.5-5.45,0Zm13.79-13.79c-1.5,1.5-1.5,3.94,0,5.45s3.94,1.5,5.45,0,1.5-3.94,0-5.45c-1.5-1.5-3.94-1.5-5.45,0Zm13.79-13.79c-1.5,1.5-1.5,3.94,0,5.45,1.5,1.5,3.94,1.5,5.45,0,1.5-1.5,1.5-3.94,0-5.45s-3.94-1.5-5.45,0Zm13.79-13.79c-1.5,1.5-1.5,3.94,0,5.45,1.5,1.5,3.94,1.5,5.45,0,1.5-1.5,1.5-3.94,0-5.45-1.5-1.5-3.94-1.5-5.45,0Zm13.79-13.79c-1.5,1.5-1.5,3.94,0,5.45s3.94,1.5,5.45,0,1.5-3.94,0-5.45-3.94-1.5-5.45,0Zm13.79-13.79c-1.5,1.5-1.5,3.94,0,5.45,1.5,1.5,3.94,1.5,5.45,0s1.5-3.94,0-5.45-3.94-1.5-5.45,0Zm13.79-13.79c-1.5,1.5-1.5,3.94,0,5.45s3.94,1.5,5.45,0c1.5-1.5,1.5-3.94,0-5.45s-3.94-1.5-5.45,0Zm13.79-13.79c-1.5,1.5-1.5,3.94,0,5.45,1.5,1.5,3.94,1.5,5.45,0,1.5-1.5,1.5-3.94,0-5.45-1.5-1.5-3.94-1.5-5.45,0Zm-175.74,195.49c-1.5,1.5-1.5,3.94,0,5.45s3.94,1.5,5.45,0c1.5-1.5,1.5-3.94,0-5.45-1.5-1.5-3.94-1.5-5.45,0Zm13.79-13.79c-1.5,1.5-1.5,3.94,0,5.45,1.5,1.5,3.94,1.5,5.45,0,1.5-1.5,1.5-3.94,0-5.45-1.5-1.5-3.94-1.5-5.45,0Zm13.79-13.79c-1.5,1.5-1.5,3.94,0,5.45,1.5,1.5,3.94,1.5,5.45,0,1.5-1.5,1.5-3.94,0-5.45s-3.94-1.5-5.45,0Zm13.79-13.79c-1.5,1.5-1.5,3.94,0,5.45,1.5,1.5,3.94,1.5,5.45,0,1.5-1.5,1.5-3.94,0-5.45-1.5-1.5-3.94-1.5-5.45,0Zm13.79-13.79c-1.5,1.5-1.5,3.94,0,5.45,1.5,1.5,3.94,1.5,5.45,0,1.5-1.5,1.5-3.94,0-5.45-1.5-1.5-3.94-1.5-5.45,0Zm13.79-13.79c-1.5,1.5-1.5,3.94,0,5.45s3.94,1.5,5.45,0c1.5-1.5,1.5-3.94,0-5.45-1.5-1.5-3.94-1.5-5.45,0Zm13.79-13.79c-1.5,1.5-1.5,3.94,0,5.45,1.5,1.5,3.94,1.5,5.45,0s1.5-3.94,0-5.45-3.94-1.5-5.45,0Zm13.79-13.79c-1.5,1.5-1.5,3.94,0,5.45,1.5,1.5,3.94,1.5,5.45,0,1.5-1.5,1.5-3.94,0-5.45-1.5-1.5-3.94-1.5-5.45,0Zm13.79-13.79c-1.5,1.5-1.5,3.94,0,5.45,1.5,1.5,3.94,1.5,5.45,0,1.5-1.5,1.5-3.94,0-5.45-1.5-1.5-3.94-1.5-5.45,0Zm13.79-13.79c-1.5,1.5-1.5,3.94,0,5.45,1.5,1.5,3.94,1.5,5.45,0,1.5-1.5,1.5-3.94,0-5.45-1.5-1.5-3.94-1.5-5.45,0Zm13.79-13.79c-1.5,1.5-1.5,3.94,0,5.45,1.5,1.5,3.94,1.5,5.45,0,1.5-1.5,1.5-3.94,0-5.45-1.5-1.5-3.94-1.5-5.45,0Zm13.79-13.79c-1.5,1.5-1.5,3.94,0,5.45,1.5,1.5,3.94,1.5,5.45,0,1.5-1.5,1.5-3.94,0-5.45s-3.94-1.5-5.45,0Zm13.79-13.79c-1.5,1.5-1.5,3.94,0,5.45,1.5,1.5,3.94,1.5,5.45,0s1.5-3.94,0-5.45c-1.5-1.5-3.94-1.5-5.45,0Zm13.79-13.79c-1.5,1.5-1.5,3.94,0,5.45,1.5,1.5,3.94,1.5,5.45,0,1.5-1.5,1.5-3.94,0-5.45-1.5-1.5-3.94-1.5-5.45,0Zm13.79-13.79c-1.5,1.5-1.5,3.94,0,5.45,1.5,1.5,3.94,1.5,5.45,0,1.5-1.5,1.5-3.94,0-5.45s-3.94-1.5-5.45,0Zm-191.4,209.44c-1.5,1.5-1.5,3.94,0,5.45s3.94,1.5,5.45,0,1.5-3.94,0-5.45c-1.5-1.5-3.94-1.5-5.45,0Zm13.79-13.79c-1.5,1.5-1.5,3.94,0,5.45s3.94,1.5,5.45,0c1.5-1.5,1.5-3.94,0-5.45-1.5-1.5-3.94-1.5-5.45,0Zm13.79-13.79c-1.5,1.5-1.5,3.94,0,5.45,1.5,1.5,3.94,1.5,5.45,0,1.5-1.5,1.5-3.94,0-5.45-1.5-1.5-3.94-1.5-5.45,0Zm13.79-13.79c-1.5,1.5-1.5,3.94,0,5.45s3.94,1.5,5.45,0,1.5-3.94,0-5.45-3.94-1.5-5.45,0Zm13.79-13.79c-1.5,1.5-1.5,3.94,0,5.45,1.5,1.5,3.94,1.5,5.45,0,1.5-1.5,1.5-3.94,0-5.45-1.5-1.5-3.94-1.5-5.45,0Zm13.79-13.79c-1.5,1.5-1.5,3.94,0,5.45,1.5,1.5,3.94,1.5,5.45,0,1.5-1.5,1.5-3.94,0-5.45-1.5-1.5-3.94-1.5-5.45,0Zm13.79-13.79c-1.5,1.5-1.5,3.94,0,5.45,1.5,1.5,3.94,1.5,5.45,0,1.5-1.5,1.5-3.94,0-5.45-1.5-1.5-3.94-1.5-5.45,0Zm13.79-13.79c-1.5,1.5-1.5,3.94,0,5.45,1.5,1.5,3.94,1.5,5.45,0,1.5-1.5,1.5-3.94,0-5.45s-3.94-1.5-5.45,0Zm13.79-13.79c-1.5,1.5-1.5,3.94,0,5.45,1.5,1.5,3.94,1.5,5.45,0,1.5-1.5,1.5-3.94,0-5.45-1.5-1.5-3.94-1.5-5.45,0Zm13.79-13.79c-1.5,1.5-1.5,3.94,0,5.45,1.5,1.5,3.94,1.5,5.45,0,1.5-1.5,1.5-3.94,0-5.45-1.5-1.5-3.94-1.5-5.45,0Zm13.79-13.79c-1.5,1.5-1.5,3.94,0,5.45,1.5,1.5,3.94,1.5,5.45,0,1.5-1.5,1.5-3.94,0-5.45-1.5-1.5-3.94-1.5-5.45,0Zm13.79-13.79c-1.5,1.5-1.5,3.94,0,5.45,1.5,1.5,3.94,1.5,5.45,0,1.5-1.5,1.5-3.94,0-5.45-1.5-1.5-3.94-1.5-5.45,0Zm13.79-13.79c-1.5,1.5-1.5,3.94,0,5.45,1.5,1.5,3.94,1.5,5.45,0,1.5-1.5,1.5-3.94,0-5.45-1.5-1.5-3.94-1.5-5.45,0Zm13.79-13.79c-1.5,1.5-1.5,3.94,0,5.45s3.94,1.5,5.45,0,1.5-3.94,0-5.45-3.94-1.5-5.45,0Zm13.79-13.79c-1.5,1.5-1.5,3.94,0,5.45s3.94,1.5,5.45,0,1.5-3.94,0-5.45-3.94-1.5-5.45,0Zm-175.74,195.49c-1.5,1.5-1.5,3.94,0,5.45s3.94,1.5,5.45,0,1.5-3.94,0-5.45-3.94-1.5-5.45,0Zm13.79-13.79c-1.5,1.5-1.5,3.94,0,5.45s3.94,1.5,5.45,0,1.5-3.94,0-5.45c-1.5-1.5-3.94-1.5-5.45,0Zm13.79-13.79c-1.5,1.5-1.5,3.94,0,5.45,1.5,1.5,3.94,1.5,5.45,0s1.5-3.94,0-5.45-3.94-1.5-5.45,0Zm13.79-13.79c-1.5,1.5-1.5,3.94,0,5.45,1.5,1.5,3.94,1.5,5.45,0s1.5-3.94,0-5.45c-1.5-1.5-3.94-1.5-5.45,0Zm13.79-13.79c-1.5,1.5-1.5,3.94,0,5.45s3.94,1.5,5.45,0c1.5-1.5,1.5-3.94,0-5.45-1.5-1.5-3.94-1.5-5.45,0Zm13.79-13.79c-1.5,1.5-1.5,3.94,0,5.45s3.94,1.5,5.45,0,1.5-3.94,0-5.45c-1.5-1.5-3.94-1.5-5.45,0Zm13.79-13.79c-1.5,1.5-1.5,3.94,0,5.45s3.94,1.5,5.45,0,1.5-3.94,0-5.45-3.94-1.5-5.45,0Zm13.79-13.79c-1.5,1.5-1.5,3.94,0,5.45,1.5,1.5,3.94,1.5,5.45,0,1.5-1.5,1.5-3.94,0-5.45-1.5-1.5-3.94-1.5-5.45,0Zm13.79-13.79c-1.5,1.5-1.5,3.94,0,5.45,1.5,1.5,3.94,1.5,5.45,0,1.5-1.5,1.5-3.94,0-5.45-1.5-1.5-3.94-1.5-5.45,0Zm13.79-13.79c-1.5,1.5-1.5,3.94,0,5.45s3.94,1.5,5.45,0,1.5-3.94,0-5.45c-1.5-1.5-3.94-1.5-5.45,0Zm13.79-13.79c-1.5,1.5-1.5,3.94,0,5.45,1.5,1.5,3.94,1.5,5.45,0,1.5-1.5,1.5-3.94,0-5.45-1.5-1.5-3.94-1.5-5.45,0Zm13.79-13.79c-1.5,1.5-1.5,3.94,0,5.45s3.94,1.5,5.45,0c1.5-1.5,1.5-3.94,0-5.45-1.5-1.5-3.94-1.5-5.45,0Zm13.79-13.79c-1.5,1.5-1.5,3.94,0,5.45s3.94,1.5,5.45,0c1.5-1.5,1.5-3.94,0-5.45-1.5-1.5-3.94-1.5-5.45,0Zm13.79-13.79c-1.5,1.5-1.5,3.94,0,5.45,1.5,1.5,3.94,1.5,5.45,0s1.5-3.94,0-5.45-3.94-1.5-5.45,0Zm13.79-13.79c-1.5,1.5-1.5,3.94,0,5.45,1.5,1.5,3.94,1.5,5.45,0s1.5-3.94,0-5.45-3.94-1.5-5.45,0Zm-191.4,209.44c-1.5,1.5-1.5,3.94,0,5.45,1.5,1.5,3.94,1.5,5.45,0,1.5-1.5,1.5-3.94,0-5.45-1.5-1.5-3.94-1.5-5.45,0Zm13.79-13.79c-1.5,1.5-1.5,3.94,0,5.45,1.5,1.5,3.94,1.5,5.45,0s1.5-3.94,0-5.45c-1.5-1.5-3.94-1.5-5.45,0Zm13.79-13.79c-1.5,1.5-1.5,3.94,0,5.45s3.94,1.5,5.45,0c1.5-1.5,1.5-3.94,0-5.45-1.5-1.5-3.94-1.5-5.45,0Zm13.79-13.79c-1.5,1.5-1.5,3.94,0,5.45,1.5,1.5,3.94,1.5,5.45,0s1.5-3.94,0-5.45c-1.5-1.5-3.94-1.5-5.45,0Zm13.79-13.79c-1.5,1.5-1.5,3.94,0,5.45,1.5,1.5,3.94,1.5,5.45,0s1.5-3.94,0-5.45c-1.5-1.5-3.94-1.5-5.45,0Zm13.79-13.79c-1.5,1.5-1.5,3.94,0,5.45s3.94,1.5,5.45,0c1.5-1.5,1.5-3.94,0-5.45-1.5-1.5-3.94-1.5-5.45,0Zm13.79-13.79c-1.5,1.5-1.5,3.94,0,5.45s3.94,1.5,5.45,0,1.5-3.94,0-5.45-3.94-1.5-5.45,0Zm13.79-13.79c-1.5,1.5-1.5,3.94,0,5.45,1.5,1.5,3.94,1.5,5.45,0,1.5-1.5,1.5-3.94,0-5.45s-3.94-1.5-5.45,0Zm13.79-13.79c-1.5,1.5-1.5,3.94,0,5.45,1.5,1.5,3.94,1.5,5.45,0s1.5-3.94,0-5.45-3.94-1.5-5.45,0Zm13.79-13.79c-1.5,1.5-1.5,3.94,0,5.45s3.94,1.5,5.45,0c1.5-1.5,1.5-3.94,0-5.45s-3.94-1.5-5.45,0Zm13.79-13.79c-1.5,1.5-1.5,3.94,0,5.45,1.5,1.5,3.94,1.5,5.45,0s1.5-3.94,0-5.45-3.94-1.5-5.45,0Zm13.79-13.79c-1.5,1.5-1.5,3.94,0,5.45,1.5,1.5,3.94,1.5,5.45,0s1.5-3.94,0-5.45-3.94-1.5-5.45,0Zm13.79-13.79c-1.5,1.5-1.5,3.94,0,5.45s3.94,1.5,5.45,0c1.5-1.5,1.5-3.94,0-5.45-1.5-1.5-3.94-1.5-5.45,0Zm13.79-13.79c-1.5,1.5-1.5,3.94,0,5.45,1.5,1.5,3.94,1.5,5.45,0,1.5-1.5,1.5-3.94,0-5.45-1.5-1.5-3.94-1.5-5.45,0Zm13.79-13.79c-1.5,1.5-1.5,3.94,0,5.45,1.5,1.5,3.94,1.5,5.45,0s1.5-3.94,0-5.45-3.94-1.5-5.45,0Zm-175.74,195.49c-1.5,1.5-1.5,3.94,0,5.45,1.5,1.5,3.94,1.5,5.45,0s1.5-3.94,0-5.45-3.94-1.5-5.45,0Zm13.79-13.79c-1.5,1.5-1.5,3.94,0,5.45s3.94,1.5,5.45,0,1.5-3.94,0-5.45c-1.5-1.5-3.94-1.5-5.45,0Zm13.79-13.79c-1.5,1.5-1.5,3.94,0,5.45s3.94,1.5,5.45,0,1.5-3.94,0-5.45-3.94-1.5-5.45,0Zm13.79-13.79c-1.5,1.5-1.5,3.94,0,5.45s3.94,1.5,5.45,0,1.5-3.94,0-5.45-3.94-1.5-5.45,0Zm13.79-13.79c-1.5,1.5-1.5,3.94,0,5.45s3.94,1.5,5.45,0,1.5-3.94,0-5.45c-1.5-1.5-3.94-1.5-5.45,0Zm13.79-13.79c-1.5,1.5-1.5,3.94,0,5.45,1.5,1.5,3.94,1.5,5.45,0,1.5-1.5,1.5-3.94,0-5.45-1.5-1.5-3.94-1.5-5.45,0Zm13.79-13.79c-1.5,1.5-1.5,3.94,0,5.45s3.94,1.5,5.45,0,1.5-3.94,0-5.45c-1.5-1.5-3.94-1.5-5.45,0Zm13.79-13.79c-1.5,1.5-1.5,3.94,0,5.45s3.94,1.5,5.45,0c1.5-1.5,1.5-3.94,0-5.45-1.5-1.5-3.94-1.5-5.45,0Zm13.79-13.79c-1.5,1.5-1.5,3.94,0,5.45s3.94,1.5,5.45,0c1.5-1.5,1.5-3.94,0-5.45-1.5-1.5-3.94-1.5-5.45,0Zm13.79-13.79c-1.5,1.5-1.5,3.94,0,5.45s3.94,1.5,5.45,0,1.5-3.94,0-5.45-3.94-1.5-5.45,0Zm13.79-13.79c-1.5,1.5-1.5,3.94,0,5.45,1.5,1.5,3.94,1.5,5.45,0,1.5-1.5,1.5-3.94,0-5.45s-3.94-1.5-5.45,0Zm13.79-13.79c-1.5,1.5-1.5,3.94,0,5.45s3.94,1.5,5.45,0c1.5-1.5,1.5-3.94,0-5.45-1.5-1.5-3.94-1.5-5.45,0Zm13.79-13.79c-1.5,1.5-1.5,3.94,0,5.45,1.5,1.5,3.94,1.5,5.45,0,1.5-1.5,1.5-3.94,0-5.45s-3.94-1.5-5.45,0Zm13.79-13.79c-1.5,1.5-1.5,3.94,0,5.45s3.94,1.5,5.45,0c1.5-1.5,1.5-3.94,0-5.45s-3.94-1.5-5.45,0Zm13.79-13.79c-1.5,1.5-1.5,3.94,0,5.45s3.94,1.5,5.45,0c1.5-1.5,1.5-3.94,0-5.45-1.5-1.5-3.94-1.5-5.45,0Zm-191.4,209.44c-1.5,1.5-1.5,3.94,0,5.45s3.94,1.5,5.45,0c1.5-1.5,1.5-3.94,0-5.45-1.5-1.5-3.94-1.5-5.45,0Zm13.79-13.79c-1.5,1.5-1.5,3.94,0,5.45,1.5,1.5,3.94,1.5,5.45,0,1.5-1.5,1.5-3.94,0-5.45s-3.94-1.5-5.45,0Zm13.79-13.79c-1.5,1.5-1.5,3.94,0,5.45,1.5,1.5,3.94,1.5,5.45,0s1.5-3.94,0-5.45c-1.5-1.5-3.94-1.5-5.45,0Zm13.79-13.79c-1.5,1.5-1.5,3.94,0,5.45s3.94,1.5,5.45,0,1.5-3.94,0-5.45-3.94-1.5-5.45,0Zm13.79-13.79c-1.5,1.5-1.5,3.94,0,5.45,1.5,1.5,3.94,1.5,5.45,0,1.5-1.5,1.5-3.94,0-5.45s-3.94-1.5-5.45,0Zm13.79-13.79c-1.5,1.5-1.5,3.94,0,5.45,1.5,1.5,3.94,1.5,5.45,0s1.5-3.94,0-5.45c-1.5-1.5-3.94-1.5-5.45,0Zm13.79-13.79c-1.5,1.5-1.5,3.94,0,5.45,1.5,1.5,3.94,1.5,5.45,0,1.5-1.5,1.5-3.94,0-5.45s-3.94-1.5-5.45,0Zm13.79-13.79c-1.5,1.5-1.5,3.94,0,5.45s3.94,1.5,5.45,0c1.5-1.5,1.5-3.94,0-5.45-1.5-1.5-3.94-1.5-5.45,0Zm13.79-13.79c-1.5,1.5-1.5,3.94,0,5.45s3.94,1.5,5.45,0c1.5-1.5,1.5-3.94,0-5.45-1.5-1.5-3.94-1.5-5.45,0Zm13.79-13.79c-1.5,1.5-1.5,3.94,0,5.45s3.94,1.5,5.45,0c1.5-1.5,1.5-3.94,0-5.45s-3.94-1.5-5.45,0Zm13.79-13.79c-1.5,1.5-1.5,3.94,0,5.45s3.94,1.5,5.45,0,1.5-3.94,0-5.45-3.94-1.5-5.45,0Zm13.79-13.79c-1.5,1.5-1.5,3.94,0,5.45,1.5,1.5,3.94,1.5,5.45,0s1.5-3.94,0-5.45-3.94-1.5-5.45,0Zm13.79-13.79c-1.5,1.5-1.5,3.94,0,5.45s3.94,1.5,5.45,0c1.5-1.5,1.5-3.94,0-5.45-1.5-1.5-3.94-1.5-5.45,0Zm13.79-13.79c-1.5,1.5-1.5,3.94,0,5.45s3.94,1.5,5.45,0c1.5-1.5,1.5-3.94,0-5.45-1.5-1.5-3.94-1.5-5.45,0Zm13.79-13.79c-1.5,1.5-1.5,3.94,0,5.45,1.5,1.5,3.94,1.5,5.45,0s1.5-3.94,0-5.45c-1.5-1.5-3.94-1.5-5.45,0Zm-175.74,195.49c-1.5,1.5-1.5,3.94,0,5.45,1.5,1.5,3.94,1.5,5.45,0s1.5-3.94,0-5.45c-1.5-1.5-3.94-1.5-5.45,0Zm13.79-13.79c-1.5,1.5-1.5,3.94,0,5.45,1.5,1.5,3.94,1.5,5.45,0,1.5-1.5,1.5-3.94,0-5.45s-3.94-1.5-5.45,0Zm13.79-13.79c-1.5,1.5-1.5,3.94,0,5.45,1.5,1.5,3.94,1.5,5.45,0,1.5-1.5,1.5-3.94,0-5.45-1.5-1.5-3.94-1.5-5.45,0Zm13.79-13.79c-1.5,1.5-1.5,3.94,0,5.45s3.94,1.5,5.45,0,1.5-3.94,0-5.45c-1.5-1.5-3.94-1.5-5.45,0Zm13.79-13.79c-1.5,1.5-1.5,3.94,0,5.45,1.5,1.5,3.94,1.5,5.45,0s1.5-3.94,0-5.45c-1.5-1.5-3.94-1.5-5.45,0Zm13.79-13.79c-1.5,1.5-1.5,3.94,0,5.45,1.5,1.5,3.94,1.5,5.45,0,1.5-1.5,1.5-3.94,0-5.45s-3.94-1.5-5.45,0Zm13.79-13.79c-1.5,1.5-1.5,3.94,0,5.45,1.5,1.5,3.94,1.5,5.45,0,1.5-1.5,1.5-3.94,0-5.45s-3.94-1.5-5.45,0Zm13.79-13.79c-1.5,1.5-1.5,3.94,0,5.45s3.94,1.5,5.45,0,1.5-3.94,0-5.45-3.94-1.5-5.45,0Zm13.79-13.79c-1.5,1.5-1.5,3.94,0,5.45,1.5,1.5,3.94,1.5,5.45,0s1.5-3.94,0-5.45-3.94-1.5-5.45,0Zm13.79-13.79c-1.5,1.5-1.5,3.94,0,5.45,1.5,1.5,3.94,1.5,5.45,0,1.5-1.5,1.5-3.94,0-5.45-1.5-1.5-3.94-1.5-5.45,0Zm13.79-13.79c-1.5,1.5-1.5,3.94,0,5.45,1.5,1.5,3.94,1.5,5.45,0,1.5-1.5,1.5-3.94,0-5.45-1.5-1.5-3.94-1.5-5.45,0Zm13.79-13.79c-1.5,1.5-1.5,3.94,0,5.45s3.94,1.5,5.45,0,1.5-3.94,0-5.45-3.94-1.5-5.45,0Zm13.79-13.79c-1.5,1.5-1.5,3.94,0,5.45,1.5,1.5,3.94,1.5,5.45,0,1.5-1.5,1.5-3.94,0-5.45-1.5-1.5-3.94-1.5-5.45,0Zm13.79-13.79c-1.5,1.5-1.5,3.94,0,5.45s3.94,1.5,5.45,0c1.5-1.5,1.5-3.94,0-5.45-1.5-1.5-3.94-1.5-5.45,0Zm13.79-13.79c-1.5,1.5-1.5,3.94,0,5.45,1.5,1.5,3.94,1.5,5.45,0s1.5-3.94,0-5.45c-1.5-1.5-3.94-1.5-5.45,0Zm-191.4,209.44c-1.5,1.5-1.5,3.94,0,5.45s3.94,1.5,5.45,0c1.5-1.5,1.5-3.94,0-5.45-1.5-1.5-3.94-1.5-5.45,0Zm13.79-13.79c-1.5,1.5-1.5,3.94,0,5.45,1.5,1.5,3.94,1.5,5.45,0s1.5-3.94,0-5.45-3.94-1.5-5.45,0Zm13.79-13.79c-1.5,1.5-1.5,3.94,0,5.45,1.5,1.5,3.94,1.5,5.45,0,1.5-1.5,1.5-3.94,0-5.45-1.5-1.5-3.94-1.5-5.45,0Zm13.79-13.79c-1.5,1.5-1.5,3.94,0,5.45s3.94,1.5,5.45,0,1.5-3.94,0-5.45c-1.5-1.5-3.94-1.5-5.45,0Zm13.79-13.79c-1.5,1.5-1.5,3.94,0,5.45,1.5,1.5,3.94,1.5,5.45,0,1.5-1.5,1.5-3.94,0-5.45s-3.94-1.5-5.45,0Zm13.79-13.79c-1.5,1.5-1.5,3.94,0,5.45s3.94,1.5,5.45,0,1.5-3.94,0-5.45-3.94-1.5-5.45,0Zm13.79-13.79c-1.5,1.5-1.5,3.94,0,5.45s3.94,1.5,5.45,0,1.5-3.94,0-5.45c-1.5-1.5-3.94-1.5-5.45,0Zm13.79-13.79c-1.5,1.5-1.5,3.94,0,5.45s3.94,1.5,5.45,0c1.5-1.5,1.5-3.94,0-5.45-1.5-1.5-3.94-1.5-5.45,0Zm13.79-13.79c-1.5,1.5-1.5,3.94,0,5.45,1.5,1.5,3.94,1.5,5.45,0,1.5-1.5,1.5-3.94,0-5.45-1.5-1.5-3.94-1.5-5.45,0Zm13.79-13.79c-1.5,1.5-1.5,3.94,0,5.45s3.94,1.5,5.45,0c1.5-1.5,1.5-3.94,0-5.45-1.5-1.5-3.94-1.5-5.45,0Zm13.79-13.79c-1.5,1.5-1.5,3.94,0,5.45,1.5,1.5,3.94,1.5,5.45,0,1.5-1.5,1.5-3.94,0-5.45-1.5-1.5-3.94-1.5-5.45,0Zm13.79-13.79c-1.5,1.5-1.5,3.94,0,5.45s3.94,1.5,5.45,0c1.5-1.5,1.5-3.94,0-5.45-1.5-1.5-3.94-1.5-5.45,0Zm13.79-13.79c-1.5,1.5-1.5,3.94,0,5.45s3.94,1.5,5.45,0c1.5-1.5,1.5-3.94,0-5.45-1.5-1.5-3.94-1.5-5.45,0Zm13.79-13.79c-1.5,1.5-1.5,3.94,0,5.45,1.5,1.5,3.94,1.5,5.45,0,1.5-1.5,1.5-3.94,0-5.45-1.5-1.5-3.94-1.5-5.45,0Zm13.79-13.79c-1.5,1.5-1.5,3.94,0,5.45,1.5,1.5,3.94,1.5,5.45,0,1.5-1.5,1.5-3.94,0-5.45s-3.94-1.5-5.45,0Zm-175.74,195.49c-1.5,1.5-1.5,3.94,0,5.45s3.94,1.5,5.45,0,1.5-3.94,0-5.45-3.94-1.5-5.45,0Zm13.79-13.79c-1.5,1.5-1.5,3.94,0,5.45,1.5,1.5,3.94,1.5,5.45,0s1.5-3.94,0-5.45c-1.5-1.5-3.94-1.5-5.45,0Zm13.79-13.79c-1.5,1.5-1.5,3.94,0,5.45,1.5,1.5,3.94,1.5,5.45,0,1.5-1.5,1.5-3.94,0-5.45-1.5-1.5-3.94-1.5-5.45,0Zm13.79-13.79c-1.5,1.5-1.5,3.94,0,5.45,1.5,1.5,3.94,1.5,5.45,0s1.5-3.94,0-5.45c-1.5-1.5-3.94-1.5-5.45,0Zm13.79-13.79c-1.5,1.5-1.5,3.94,0,5.45s3.94,1.5,5.45,0,1.5-3.94,0-5.45-3.94-1.5-5.45,0Zm13.79-13.79c-1.5,1.5-1.5,3.94,0,5.45s3.94,1.5,5.45,0c1.5-1.5,1.5-3.94,0-5.45s-3.94-1.5-5.45,0Zm13.79-13.79c-1.5,1.5-1.5,3.94,0,5.45,1.5,1.5,3.94,1.5,5.45,0,1.5-1.5,1.5-3.94,0-5.45s-3.94-1.5-5.45,0Zm13.79-13.79c-1.5,1.5-1.5,3.94,0,5.45s3.94,1.5,5.45,0,1.5-3.94,0-5.45c-1.5-1.5-3.94-1.5-5.45,0Zm13.79-13.79c-1.5,1.5-1.5,3.94,0,5.45s3.94,1.5,5.45,0,1.5-3.94,0-5.45c-1.5-1.5-3.94-1.5-5.45,0Zm13.79-13.79c-1.5,1.5-1.5,3.94,0,5.45,1.5,1.5,3.94,1.5,5.45,0,1.5-1.5,1.5-3.94,0-5.45-1.5-1.5-3.94-1.5-5.45,0Zm13.79-13.79c-1.5,1.5-1.5,3.94,0,5.45s3.94,1.5,5.45,0,1.5-3.94,0-5.45-3.94-1.5-5.45,0Zm13.79-13.79c-1.5,1.5-1.5,3.94,0,5.45,1.5,1.5,3.94,1.5,5.45,0s1.5-3.94,0-5.45-3.94-1.5-5.45,0Zm13.79-13.79c-1.5,1.5-1.5,3.94,0,5.45s3.94,1.5,5.45,0,1.5-3.94,0-5.45-3.94-1.5-5.45,0Zm13.79-13.79c-1.5,1.5-1.5,3.94,0,5.45s3.94,1.5,5.45,0c1.5-1.5,1.5-3.94,0-5.45-1.5-1.5-3.94-1.5-5.45,0Zm13.79-13.79c-1.5,1.5-1.5,3.94,0,5.45,1.5,1.5,3.94,1.5,5.45,0,1.5-1.5,1.5-3.94,0-5.45s-3.94-1.5-5.45,0Z"/>
        <rect class="cls-3" x="-320.17" y="-105.79" width="816.47" height="268.25" transform="translate(5.75 70.57) rotate(-45)"/>
        <rect class="cls-4" x="-197.41" y="461.91" width="816.47" height="268.25" transform="translate(781.35 868.41) rotate(135)"/>
        <rect class="cls-5" x="1058.92" y="-230.91" width="816.47" height="268.25" transform="translate(498.16 1009.09) rotate(-45)"/>
        <rect class="cls-2" x="982.85" y="354.83" width="816.47" height="249.86" transform="translate(68.2 1124.16) rotate(-45)"/>
        <path class="cls-7" d="M107.53,392c0,4.19-3.4,7.59-7.59,7.59s-7.59-3.4-7.59-7.59,3.4-7.59,7.59-7.59,7.59,3.4,7.59,7.59Zm11.02,11.02c-4.19,0-7.59,3.4-7.59,7.59s3.4,7.59,7.59,7.59,7.59-3.4,7.59-7.59-3.4-7.59-7.59-7.59Zm-36.36-.88c-4.19,0-7.59,3.4-7.59,7.59s3.4,7.59,7.59,7.59,7.59-3.4,7.59-7.59-3.4-7.59-7.59-7.59Zm18.62,18.62c-4.19,0-7.59,3.4-7.59,7.59s3.4,7.59,7.59,7.59,7.59-3.4,7.59-7.59-3.4-7.59-7.59-7.59Zm-36.36-.88c-4.19,0-7.59,3.4-7.59,7.59s3.4,7.59,7.59,7.59,7.59-3.4,7.59-7.59-3.4-7.59-7.59-7.59Zm18.62,18.62c-4.19,0-7.59,3.4-7.59,7.59s3.4,7.59,7.59,7.59,7.59-3.4,7.59-7.59-3.4-7.59-7.59-7.59Zm-36.36-.88c-4.19,0-7.59,3.4-7.59,7.59s3.4,7.59,7.59,7.59,7.59-3.4,7.59-7.59-3.4-7.59-7.59-7.59Zm18.62,18.62c-4.19,0-7.59,3.4-7.59,7.59s3.4,7.59,7.59,7.59,7.59-3.4,7.59-7.59-3.4-7.59-7.59-7.59Zm-36.36-.88c-4.19,0-7.59,3.4-7.59,7.59s3.4,7.59,7.59,7.59,7.59-3.4,7.59-7.59-3.4-7.59-7.59-7.59Zm18.62,18.62c-4.19,0-7.59,3.4-7.59,7.59s3.4,7.59,7.59,7.59,7.59-3.4,7.59-7.59-3.4-7.59-7.59-7.59Zm-36.36-.88c-4.19,0-7.59,3.4-7.59,7.59s3.4,7.59,7.59,7.59,7.59-3.4,7.59-7.59-3.4-7.59-7.59-7.59Zm18.62,18.62c-4.19,0-7.59,3.4-7.59,7.59s3.4,7.59,7.59,7.59,7.59-3.4,7.59-7.59-3.4-7.59-7.59-7.59Zm-36.36-.88c-4.19,0-7.59,3.4-7.59,7.59s3.4,7.59,7.59,7.59,7.59-3.4,7.59-7.59-3.4-7.59-7.59-7.59Zm18.62,18.62c-4.19,0-7.59,3.4-7.59,7.59s3.4,7.59,7.59,7.59,7.59-3.4,7.59-7.59-3.4-7.59-7.59-7.59Zm-36.36-.88c-4.19,0-7.59,3.4-7.59,7.59s3.4,7.59,7.59,7.59,7.59-3.4,7.59-7.59-3.4-7.59-7.59-7.59Zm18.62,18.62c-4.19,0-7.59,3.4-7.59,7.59s3.4,7.59,7.59,7.59,7.59-3.4,7.59-7.59-3.4-7.59-7.59-7.59Zm-36.36-.88c-4.19,0-7.59,3.4-7.59,7.59s3.4,7.59,7.59,7.59,7.59-3.4,7.59-7.59-3.4-7.59-7.59-7.59Zm18.62,18.62c-4.19,0-7.59,3.4-7.59,7.59s3.4,7.59,7.59,7.59,7.59-3.4,7.59-7.59-3.4-7.59-7.59-7.59Zm-36.36-.88c-4.19,0-7.59,3.4-7.59,7.59s3.4,7.59,7.59,7.59,7.59-3.4,7.59-7.59-3.4-7.59-7.59-7.59Zm18.62,18.62c-4.19,0-7.59,3.4-7.59,7.59s3.4,7.59,7.59,7.59,7.59-3.4,7.59-7.59-3.4-7.59-7.59-7.59Z"/>
        <path class="cls-11" d="M1137.59-76.98c0,4.19-3.4,7.59-7.59,7.59s-7.59-3.4-7.59-7.59,3.4-7.59,7.59-7.59,7.59,3.4,7.59,7.59Zm11.02,11.02c-4.19,0-7.59,3.4-7.59,7.59s3.4,7.59,7.59,7.59,7.59-3.4,7.59-7.59-3.4-7.59-7.59-7.59Zm-36.36-.88c-4.19,0-7.59,3.4-7.59,7.59s3.4,7.59,7.59,7.59,7.59-3.4,7.59-7.59-3.4-7.59-7.59-7.59Zm18.62,18.62c-4.19,0-7.59,3.4-7.59,7.59s3.4,7.59,7.59,7.59,7.59-3.4,7.59-7.59-3.4-7.59-7.59-7.59Zm-36.36-.88c-4.19,0-7.59,3.4-7.59,7.59s3.4,7.59,7.59,7.59,7.59-3.4,7.59-7.59-3.4-7.59-7.59-7.59Zm18.62,18.62c-4.19,0-7.59,3.4-7.59,7.59s3.4,7.59,7.59,7.59,7.59-3.4,7.59-7.59-3.4-7.59-7.59-7.59Zm-36.36-.88c-4.19,0-7.59,3.4-7.59,7.59s3.4,7.59,7.59,7.59,7.59-3.4,7.59-7.59-3.4-7.59-7.59-7.59Zm18.62,18.62c-4.19,0-7.59,3.4-7.59,7.59s3.4,7.59,7.59,7.59,7.59-3.4,7.59-7.59-3.4-7.59-7.59-7.59Zm-36.36-.88c-4.19,0-7.59,3.4-7.59,7.59s3.4,7.59,7.59,7.59,7.59-3.4,7.59-7.59-3.4-7.59-7.59-7.59Zm18.62,18.62c-4.19,0-7.59,3.4-7.59,7.59s3.4,7.59,7.59,7.59,7.59-3.4,7.59-7.59-3.4-7.59-7.59-7.59Zm-36.36-.88c-4.19,0-7.59,3.4-7.59,7.59s3.4,7.59,7.59,7.59,7.59-3.4,7.59-7.59-3.4-7.59-7.59-7.59Zm18.62,18.62c-4.19,0-7.59,3.4-7.59,7.59s3.4,7.59,7.59,7.59,7.59-3.4,7.59-7.59-3.4-7.59-7.59-7.59Zm-36.36-.88c-4.19,0-7.59,3.4-7.59,7.59s3.4,7.59,7.59,7.59,7.59-3.4,7.59-7.59-3.4-7.59-7.59-7.59Zm18.62,18.62c-4.19,0-7.59,3.4-7.59,7.59s3.4,7.59,7.59,7.59,7.59-3.4,7.59-7.59-3.4-7.59-7.59-7.59Zm-36.36-.88c-4.19,0-7.59,3.4-7.59,7.59s3.4,7.59,7.59,7.59,7.59-3.4,7.59-7.59-3.4-7.59-7.59-7.59Zm18.62,18.62c-4.19,0-7.59,3.4-7.59,7.59s3.4,7.59,7.59,7.59,7.59-3.4,7.59-7.59-3.4-7.59-7.59-7.59Zm-36.36-.88c-4.19,0-7.59,3.4-7.59,7.59s3.4,7.59,7.59,7.59,7.59-3.4,7.59-7.59-3.4-7.59-7.59-7.59Zm18.62,18.62c-4.19,0-7.59,3.4-7.59,7.59s3.4,7.59,7.59,7.59,7.59-3.4,7.59-7.59-3.4-7.59-7.59-7.59Zm-36.36-.88c-4.19,0-7.59,3.4-7.59,7.59s3.4,7.59,7.59,7.59,7.59-3.4,7.59-7.59-3.4-7.59-7.59-7.59Zm18.62,18.62c-4.19,0-7.59,3.4-7.59,7.59s3.4,7.59,7.59,7.59,7.59-3.4,7.59-7.59-3.4-7.59-7.59-7.59Z"/>
        <path class="cls-10" d="M385.12,605.58c0-4.19,3.4-7.59,7.59-7.59s7.59,3.4,7.59,7.59-3.4,7.59-7.59,7.59-7.59-3.4-7.59-7.59Zm-11.02-11.02c4.19,0,7.59-3.4,7.59-7.59s-3.4-7.59-7.59-7.59-7.59,3.4-7.59,7.59,3.4,7.59,7.59,7.59Zm36.36,.88c4.19,0,7.59-3.4,7.59-7.59s-3.4-7.59-7.59-7.59-7.59,3.4-7.59,7.59,3.4,7.59,7.59,7.59Zm-18.62-18.62c4.19,0,7.59-3.4,7.59-7.59s-3.4-7.59-7.59-7.59-7.59,3.4-7.59,7.59,3.4,7.59,7.59,7.59Zm36.36,.88c4.19,0,7.59-3.4,7.59-7.59s-3.4-7.59-7.59-7.59-7.59,3.4-7.59,7.59,3.4,7.59,7.59,7.59Zm-18.62-18.62c4.19,0,7.59-3.4,7.59-7.59s-3.4-7.59-7.59-7.59-7.59,3.4-7.59,7.59,3.4,7.59,7.59,7.59Zm36.36,.88c4.19,0,7.59-3.4,7.59-7.59s-3.4-7.59-7.59-7.59-7.59,3.4-7.59,7.59,3.4,7.59,7.59,7.59Zm-18.62-18.62c4.19,0,7.59-3.4,7.59-7.59s-3.4-7.59-7.59-7.59-7.59,3.4-7.59,7.59,3.4,7.59,7.59,7.59Zm36.36,.88c4.19,0,7.59-3.4,7.59-7.59s-3.4-7.59-7.59-7.59-7.59,3.4-7.59,7.59,3.4,7.59,7.59,7.59Zm-18.62-18.62c4.19,0,7.59-3.4,7.59-7.59s-3.4-7.59-7.59-7.59-7.59,3.4-7.59,7.59,3.4,7.59,7.59,7.59Zm36.36,.88c4.19,0,7.59-3.4,7.59-7.59s-3.4-7.59-7.59-7.59-7.59,3.4-7.59,7.59,3.4,7.59,7.59,7.59Zm-18.62-18.62c4.19,0,7.59-3.4,7.59-7.59s-3.4-7.59-7.59-7.59-7.59,3.4-7.59,7.59,3.4,7.59,7.59,7.59Zm36.36,.88c4.19,0,7.59-3.4,7.59-7.59s-3.4-7.59-7.59-7.59-7.59,3.4-7.59,7.59,3.4,7.59,7.59,7.59Zm-18.62-18.62c4.19,0,7.59-3.4,7.59-7.59s-3.4-7.59-7.59-7.59-7.59,3.4-7.59,7.59,3.4,7.59,7.59,7.59Zm36.36,.88c4.19,0,7.59-3.4,7.59-7.59s-3.4-7.59-7.59-7.59-7.59,3.4-7.59,7.59,3.4,7.59,7.59,7.59Zm-18.62-18.62c4.19,0,7.59-3.4,7.59-7.59s-3.4-7.59-7.59-7.59-7.59,3.4-7.59,7.59,3.4,7.59,7.59,7.59Zm36.36,.88c4.19,0,7.59-3.4,7.59-7.59s-3.4-7.59-7.59-7.59-7.59,3.4-7.59,7.59,3.4,7.59,7.59,7.59Zm-18.62-18.62c4.19,0,7.59-3.4,7.59-7.59s-3.4-7.59-7.59-7.59-7.59,3.4-7.59,7.59,3.4,7.59,7.59,7.59Zm36.36,.88c4.19,0,7.59-3.4,7.59-7.59s-3.4-7.59-7.59-7.59-7.59,3.4-7.59,7.59,3.4,7.59,7.59,7.59Zm-18.62-18.62c4.19,0,7.59-3.4,7.59-7.59s-3.4-7.59-7.59-7.59-7.59,3.4-7.59,7.59,3.4,7.59,7.59,7.59Z"/>
        <path class="cls-12" d="M768.62,605.58c0-4.19,3.4-7.59,7.59-7.59s7.59,3.4,7.59,7.59-3.4,7.59-7.59,7.59-7.59-3.4-7.59-7.59Zm-11.02-11.02c4.19,0,7.59-3.4,7.59-7.59s-3.4-7.59-7.59-7.59-7.59,3.4-7.59,7.59,3.4,7.59,7.59,7.59Zm36.36,.88c4.19,0,7.59-3.4,7.59-7.59s-3.4-7.59-7.59-7.59-7.59,3.4-7.59,7.59,3.4,7.59,7.59,7.59Zm-18.62-18.62c4.19,0,7.59-3.4,7.59-7.59s-3.4-7.59-7.59-7.59-7.59,3.4-7.59,7.59,3.4,7.59,7.59,7.59Zm36.36,.88c4.19,0,7.59-3.4,7.59-7.59s-3.4-7.59-7.59-7.59-7.59,3.4-7.59,7.59,3.4,7.59,7.59,7.59Zm-18.62-18.62c4.19,0,7.59-3.4,7.59-7.59s-3.4-7.59-7.59-7.59-7.59,3.4-7.59,7.59,3.4,7.59,7.59,7.59Zm36.36,.88c4.19,0,7.59-3.4,7.59-7.59s-3.4-7.59-7.59-7.59-7.59,3.4-7.59,7.59,3.4,7.59,7.59,7.59Zm-18.62-18.62c4.19,0,7.59-3.4,7.59-7.59s-3.4-7.59-7.59-7.59-7.59,3.4-7.59,7.59,3.4,7.59,7.59,7.59Zm36.36,.88c4.19,0,7.59-3.4,7.59-7.59s-3.4-7.59-7.59-7.59-7.59,3.4-7.59,7.59,3.4,7.59,7.59,7.59Zm-18.62-18.62c4.19,0,7.59-3.4,7.59-7.59s-3.4-7.59-7.59-7.59-7.59,3.4-7.59,7.59,3.4,7.59,7.59,7.59Zm36.36,.88c4.19,0,7.59-3.4,7.59-7.59s-3.4-7.59-7.59-7.59-7.59,3.4-7.59,7.59,3.4,7.59,7.59,7.59Zm-18.62-18.62c4.19,0,7.59-3.4,7.59-7.59s-3.4-7.59-7.59-7.59-7.59,3.4-7.59,7.59,3.4,7.59,7.59,7.59Zm36.36,.88c4.19,0,7.59-3.4,7.59-7.59s-3.4-7.59-7.59-7.59-7.59,3.4-7.59,7.59,3.4,7.59,7.59,7.59Zm-18.62-18.62c4.19,0,7.59-3.4,7.59-7.59s-3.4-7.59-7.59-7.59-7.59,3.4-7.59,7.59,3.4,7.59,7.59,7.59Zm36.36,.88c4.19,0,7.59-3.4,7.59-7.59s-3.4-7.59-7.59-7.59-7.59,3.4-7.59,7.59,3.4,7.59,7.59,7.59Zm-18.62-18.62c4.19,0,7.59-3.4,7.59-7.59s-3.4-7.59-7.59-7.59-7.59,3.4-7.59,7.59,3.4,7.59,7.59,7.59Zm36.36,.88c4.19,0,7.59-3.4,7.59-7.59s-3.4-7.59-7.59-7.59-7.59,3.4-7.59,7.59,3.4,7.59,7.59,7.59Zm-18.62-18.62c4.19,0,7.59-3.4,7.59-7.59s-3.4-7.59-7.59-7.59-7.59,3.4-7.59,7.59,3.4,7.59,7.59,7.59Zm36.36,.88c4.19,0,7.59-3.4,7.59-7.59s-3.4-7.59-7.59-7.59-7.59,3.4-7.59,7.59,3.4,7.59,7.59,7.59Zm-18.62-18.62c4.19,0,7.59-3.4,7.59-7.59s-3.4-7.59-7.59-7.59-7.59,3.4-7.59,7.59,3.4,7.59,7.59,7.59Z"/>
        <g>
          <g>
            <rect class="cls-15" x="961.09" y="444.97" width="900.87" height="71.39" transform="translate(73.55 1138.88) rotate(-45)"/>
            <rect class="cls-23" x="914.27" y="416.94" width="900.87" height="33.8" transform="translate(92.94 1092.06) rotate(-45)"/>
          </g>
          <g>
            <rect class="cls-22" x="-328.43" y="16.34" width="900.87" height="71.39" transform="translate(-1.06 101.51) rotate(-45)"/>
            <rect class="cls-21" x="-375.25" y="-11.69" width="900.87" height="33.8" transform="translate(18.34 54.69) rotate(-45)"/>
          </g>
        </g>
        <polygon class="cls-19" points="369.01 91.39 384.75 107.12 371.8 120.07 360.67 108.95 343.11 91.39 360.67 73.83 461.7 -27.2 474.65 -14.25 369.01 91.39"/>
        <rect class="cls-16" x="1046.02" y="411.76" width="17" height="245.18" transform="translate(686.71 -589.15) rotate(45)"/>
        <rect class="cls-27" x="1078.72" y="342.36" width="15.3" height="245.18" transform="translate(646.96 -632) rotate(45)"/>
        <g>
          <polygon class="cls-20" points="362.41 410.42 361.33 437.33 388.23 436.25 388.47 442.15 355.18 443.48 356.51 410.19 362.41 410.42"/>
          <polygon class="cls-17" points="378.06 394.77 376.98 421.67 403.88 420.6 404.12 426.5 370.83 427.83 372.16 394.54 378.06 394.77"/>
          <polygon class="cls-18" points="393.71 379.12 392.63 406.02 419.54 404.95 419.77 410.84 386.48 412.18 387.81 378.88 393.71 379.12"/>
        </g>
        <path class="cls-24" d="M1322.37,241.4v11.97h-26.52v-26.52h11.97v14.54h14.54Zm5.21-19.75v-14.54h-11.97v26.52h26.52v-11.97h-14.54Z"/>
        <g>
          <polygon class="cls-28" points="202.48 252.52 183.46 233.51 181.45 254.53 202.48 252.52"/>
          <polygon class="cls-30" points="214.9 240.09 195.89 221.08 193.88 242.1 214.9 240.09"/>
          <polygon class="cls-32" points="227.33 227.66 208.32 208.65 206.31 229.67 227.33 227.66"/>
        </g>
        <g>
          <polygon class="cls-31" points="1120.33 100.43 1101.32 81.41 1099.31 102.44 1120.33 100.43"/>
          <polygon class="cls-33" points="1132.76 88 1113.75 68.99 1111.74 90.01 1132.76 88"/>
          <polygon class="cls-35" points="1145.19 75.57 1126.18 56.56 1124.17 77.58 1145.19 75.57"/>
        </g>
        <path class="cls-34" d="M488.09,54.49c3.43-3.43,8-5.33,12.86-5.33s9.42,1.89,12.86,5.33c3.44,3.43,5.33,8,5.33,12.86s-1.89,9.42-5.33,12.86l-5-5c2.1-2.1,3.26-4.89,3.26-7.86s-1.16-5.76-3.26-7.86c-2.1-2.1-4.89-3.26-7.86-3.26s-5.76,1.16-7.86,3.26l-5-5Z"/>
        <path class="cls-29" d="M983.04,416.51c3.43-3.43,8-5.33,12.86-5.33s9.42,1.89,12.86,5.33c3.44,3.43,5.33,8,5.33,12.86s-1.89,9.42-5.33,12.86l-5-5c2.1-2.1,3.26-4.89,3.26-7.86s-1.16-5.76-3.26-7.86c-2.1-2.1-4.89-3.26-7.86-3.26s-5.76,1.16-7.86,3.26l-5-5Z"/>
      </g>
    </g>
  </g>
</svg>