<?xml version="1.0" encoding="UTF-8"?>
<svg xmlns="http://www.w3.org/2000/svg" viewBox="0 0 283.46 283.46">
  <defs>
    <style>
      .cls-1, .cls-2, .cls-3 {
        fill: #fafafa;
      }

      .cls-4 {
        fill: #767777;
      }

      .cls-2 {
        stroke: #c9caca;
        stroke-width: .75px;
      }

      .cls-2, .cls-3 {
        stroke-linecap: round;
        stroke-miterlimit: 10;
      }

      .cls-3 {
        stroke: #898989;
        stroke-width: 3px;
      }
    </style>
  </defs>
  <g id="face">
    <circle class="cls-1" cx="141.73" cy="141.73" r="141.73"/>
    <g>
      <path class="cls-4" d="M138.26,49.55h-2.05v-11.57l-2.83,1.48v-2.14l3.26-1.67h1.62v13.91Z"/>
      <path class="cls-4" d="M144.13,47.66h5.91v1.89h-8.8v-1.53l4.21-4.73c.82-.92,1.39-1.69,1.73-2.29s.5-1.16,.5-1.69c0-.61-.2-1.11-.6-1.49-.4-.38-.93-.57-1.57-.57-.58,0-1.09,.18-1.54,.54s-.81,.87-1.09,1.53l-1.76-.79c.35-1,.91-1.77,1.68-2.32,.77-.55,1.69-.83,2.76-.83,.81,0,1.54,.16,2.19,.49,.64,.32,1.14,.78,1.49,1.36,.36,.58,.53,1.26,.53,2.02s-.2,1.49-.6,2.27c-.4,.78-1.06,1.69-1.97,2.72l-3.06,3.42Z"/>
    </g>
    <path class="cls-4" d="M139.28,248.11c-.71-.39-1.27-.94-1.67-1.64-.4-.7-.6-1.5-.6-2.4,0-.82,.13-1.6,.39-2.37,.26-.76,.73-1.74,1.43-2.94l2.47-4.23h2.39l-3.29,5.49,.05,.05c.2-.16,.47-.28,.79-.38,.32-.1,.67-.14,1.04-.14,.79,0,1.51,.19,2.14,.57,.64,.38,1.14,.91,1.5,1.58,.37,.68,.55,1.46,.55,2.33s-.2,1.72-.6,2.43c-.4,.71-.96,1.26-1.68,1.65-.72,.39-1.54,.58-2.47,.58s-1.73-.2-2.44-.58Zm4.37-2.04c.49-.52,.73-1.18,.73-2s-.24-1.42-.71-1.92c-.47-.5-1.08-.75-1.83-.75-.8,0-1.46,.25-1.97,.75-.51,.5-.77,1.14-.77,1.92s.25,1.48,.75,2c.5,.52,1.14,.77,1.92,.77s1.39-.26,1.88-.77Z"/>
    <path class="cls-4" d="M40.37,149.42l3.29-5.49-.05-.04c-.22,.16-.49,.28-.81,.38-.32,.1-.67,.14-1.04,.14-.78,0-1.49-.2-2.12-.58-.64-.39-1.14-.93-1.5-1.61s-.55-1.45-.55-2.3c0-.9,.2-1.7,.61-2.41,.41-.71,.97-1.26,1.69-1.66,.72-.4,1.54-.59,2.45-.59s1.72,.2,2.43,.58c.71,.39,1.26,.94,1.66,1.64s.6,1.5,.6,2.39c0,.83-.13,1.63-.39,2.4-.26,.77-.73,1.75-1.41,2.94l-2.45,4.21h-2.41Zm3.8-7.62c.52-.5,.77-1.14,.77-1.93s-.25-1.46-.75-1.97c-.5-.51-1.14-.77-1.92-.77s-1.38,.26-1.87,.77c-.49,.51-.74,1.17-.74,1.97s.24,1.44,.71,1.93c.47,.5,1.08,.75,1.83,.75,.79,0,1.45-.25,1.96-.75Z"/>
    <path class="cls-4" d="M241.28,140.19c.1-.01,.25-.02,.45-.02,.66,0,1.29,.16,1.9,.49,.61,.32,1.09,.8,1.47,1.42s.56,1.37,.56,2.25-.19,1.67-.58,2.33-.92,1.18-1.62,1.55c-.7,.37-1.49,.55-2.39,.55-1.06,0-1.99-.28-2.8-.84-.81-.56-1.4-1.33-1.77-2.33l1.87-.65c.5,1.3,1.42,1.94,2.74,1.94,.76,0,1.36-.23,1.82-.69s.68-1.08,.68-1.86-.24-1.42-.71-1.87-1.12-.68-1.95-.68c-.44,0-.89,.14-1.35,.41l-1.13-1.49,3.82-4.21h-5.33v-1.89h7.99v1.71l-3.69,3.8,.04,.09Z"/>
    <path class="cls-4" d="M193.14,62.37h-2.05v-11.57l-2.83,1.48v-2.14l3.26-1.67h1.62v13.91Z"/>
    <path class="cls-4" d="M226.19,97.29h5.9v1.89h-8.8v-1.53l4.21-4.73c.82-.92,1.39-1.69,1.73-2.29,.33-.6,.5-1.16,.5-1.69,0-.61-.2-1.11-.6-1.49-.4-.38-.93-.57-1.58-.57-.58,0-1.09,.18-1.54,.54-.45,.36-.81,.87-1.09,1.53l-1.76-.79c.35-1,.91-1.77,1.68-2.32,.77-.55,1.7-.83,2.76-.83,.82,0,1.54,.16,2.19,.49,.64,.32,1.14,.78,1.49,1.36,.35,.58,.53,1.26,.53,2.02s-.2,1.49-.6,2.27c-.4,.78-1.06,1.69-1.97,2.72l-3.06,3.42Z"/>
    <path class="cls-4" d="M229.97,192.85h1.71v1.89h-1.71v2.93h-2.05v-2.93h-6.21v-1.42l5.36-9.56h2.9v9.09Zm-2.05-6.82l-3.82,6.82h3.82v-6.82Z"/>
    <path class="cls-4" d="M194.08,226.92c.64,.36,1.14,.87,1.49,1.54,.35,.67,.53,1.44,.53,2.31,0,.92-.19,1.73-.58,2.42-.38,.69-.92,1.22-1.61,1.59-.69,.37-1.5,.56-2.42,.56-1.13,0-2.1-.29-2.91-.86-.81-.57-1.38-1.32-1.7-2.26l1.87-.65c.23,.59,.57,1.05,1.04,1.39s1.03,.5,1.7,.5c.78,0,1.4-.24,1.86-.71,.46-.47,.69-1.11,.69-1.92s-.24-1.44-.71-1.9c-.47-.46-1.11-.69-1.9-.69-.48,0-.92,.1-1.31,.31-.4,.21-.74,.51-1.03,.91l-1.73-.43,.56-7.87h7.43v1.87h-5.54l-.32,4.03c.3-.24,.66-.42,1.07-.53s.84-.17,1.29-.17c.84,0,1.58,.18,2.22,.54Z"/>
    <path class="cls-4" d="M90.76,235.44h-2.27l5.18-11.99h-6.17l-.02-1.93h8.59v1.4l-5.31,12.51Z"/>
    <path class="cls-4" d="M52.83,198.75c-.73-.34-1.29-.82-1.7-1.42-.41-.61-.61-1.29-.61-2.06,0-.83,.25-1.58,.76-2.25,.5-.67,1.12-1.14,1.84-1.4v-.05c-.56-.2-1.05-.59-1.47-1.16-.41-.57-.62-1.2-.62-1.88s.18-1.34,.55-1.9c.37-.56,.87-.99,1.52-1.3,.65-.31,1.39-.47,2.21-.47s1.57,.16,2.22,.47c.65,.31,1.16,.75,1.53,1.3,.37,.56,.55,1.19,.55,1.9s-.21,1.36-.62,1.92c-.41,.56-.91,.93-1.49,1.12v.05c.73,.28,1.35,.75,1.85,1.41s.76,1.41,.76,2.24c0,.77-.21,1.46-.61,2.06-.41,.61-.97,1.08-1.7,1.42-.73,.34-1.56,.51-2.49,.51s-1.75-.17-2.48-.51Zm4.42-2.02c.5-.45,.76-1.04,.76-1.75s-.25-1.31-.76-1.75c-.5-.45-1.15-.68-1.94-.68s-1.43,.23-1.94,.68c-.51,.45-.77,1.03-.77,1.75s.25,1.3,.76,1.75,1.15,.67,1.94,.67,1.44-.22,1.94-.67Zm-.34-6.57c.42-.37,.63-.84,.63-1.43s-.21-1.09-.62-1.46c-.41-.37-.95-.56-1.61-.56s-1.2,.19-1.61,.56-.62,.86-.62,1.46,.21,1.05,.63,1.42,.95,.56,1.6,.56,1.18-.18,1.6-.55Z"/>
    <g>
      <path class="cls-4" d="M51.53,99.29h-2.05v-11.57l-2.83,1.48v-2.14l3.26-1.67h1.62v13.91Z"/>
      <path class="cls-4" d="M55.93,97.68c-.83-1.25-1.25-3.02-1.25-5.33s.42-4.1,1.25-5.35,2.02-1.87,3.56-1.87,2.72,.62,3.55,1.87,1.25,3.03,1.25,5.35-.42,4.08-1.25,5.33-2.02,1.87-3.55,1.87-2.72-.62-3.56-1.87Zm5.56-1.4c.47-.92,.71-2.23,.71-3.93s-.24-3.02-.71-3.94c-.47-.92-1.14-1.39-2.01-1.39s-1.53,.46-2.01,1.39c-.47,.92-.71,2.24-.71,3.94s.24,3.02,.71,3.93c.47,.92,1.14,1.38,2.01,1.38s1.53-.46,2.01-1.38Z"/>
    </g>
    <g>
      <path class="cls-4" d="M89.65,63.28h-2.05v-11.57l-2.83,1.48v-2.14l3.26-1.67h1.62v13.91Z"/>
      <path class="cls-4" d="M97.52,63.28h-2.05v-11.57l-2.83,1.48v-2.14l3.26-1.67h1.62v13.91Z"/>
    </g>
  </g>
  <g id="minute">
    <line class="cls-2" x1="141.73" y1="13.45" x2="141.73" y2="24.37"/>
    <line class="cls-2" x1="128.32" y1="14.15" x2="129.46" y2="25.01"/>
    <line class="cls-2" x1="115.06" y1="16.25" x2="117.33" y2="26.93"/>
    <line class="cls-2" x1="102.09" y1="19.73" x2="105.46" y2="30.11"/>
    <line class="cls-2" x1="89.56" y1="24.54" x2="94" y2="34.52"/>
    <line class="cls-2" x1="77.59" y1="30.64" x2="83.05" y2="40.09"/>
    <line class="cls-2" x1="66.33" y1="37.95" x2="72.75" y2="46.78"/>
    <line class="cls-2" x1="55.9" y1="46.4" x2="63.2" y2="54.51"/>
    <line class="cls-2" x1="46.4" y1="55.9" x2="54.51" y2="63.2"/>
    <line class="cls-2" x1="37.95" y1="66.33" x2="46.78" y2="72.75"/>
    <line class="cls-2" x1="30.64" y1="77.59" x2="40.09" y2="83.05"/>
    <line class="cls-2" x1="24.54" y1="89.56" x2="34.52" y2="94"/>
    <line class="cls-2" x1="19.73" y1="102.09" x2="30.11" y2="105.46"/>
    <line class="cls-2" x1="16.25" y1="115.06" x2="26.93" y2="117.33"/>
    <line class="cls-2" x1="14.15" y1="128.32" x2="25.01" y2="129.46"/>
    <line class="cls-2" x1="13.45" y1="141.73" x2="24.37" y2="141.73"/>
    <line class="cls-2" x1="14.15" y1="155.14" x2="25.01" y2="154"/>
    <line class="cls-2" x1="16.25" y1="168.4" x2="26.93" y2="166.13"/>
    <line class="cls-2" x1="19.73" y1="181.37" x2="30.11" y2="178"/>
    <line class="cls-2" x1="24.54" y1="193.91" x2="34.52" y2="189.47"/>
    <line class="cls-2" x1="30.64" y1="205.87" x2="40.09" y2="200.41"/>
    <line class="cls-2" x1="37.95" y1="217.13" x2="46.78" y2="210.72"/>
    <line class="cls-2" x1="46.4" y1="227.57" x2="54.51" y2="220.26"/>
    <line class="cls-2" x1="55.9" y1="237.06" x2="63.2" y2="228.95"/>
    <line class="cls-2" x1="66.33" y1="245.51" x2="72.75" y2="236.68"/>
    <line class="cls-2" x1="77.59" y1="252.83" x2="83.05" y2="243.37"/>
    <line class="cls-2" x1="89.56" y1="258.92" x2="94" y2="248.95"/>
    <line class="cls-2" x1="102.09" y1="263.74" x2="105.46" y2="253.35"/>
    <line class="cls-2" x1="115.06" y1="267.21" x2="117.33" y2="256.53"/>
    <line class="cls-2" x1="128.32" y1="269.31" x2="129.46" y2="258.45"/>
    <line class="cls-2" x1="141.73" y1="270.01" x2="141.73" y2="259.1"/>
    <line class="cls-2" x1="155.14" y1="269.31" x2="154" y2="258.45"/>
    <line class="cls-2" x1="168.4" y1="267.21" x2="166.13" y2="256.53"/>
    <line class="cls-2" x1="181.37" y1="263.74" x2="178" y2="253.35"/>
    <line class="cls-2" x1="193.91" y1="258.92" x2="189.47" y2="248.95"/>
    <line class="cls-2" x1="205.87" y1="252.83" x2="200.41" y2="243.37"/>
    <line class="cls-2" x1="217.13" y1="245.51" x2="210.72" y2="236.68"/>
    <line class="cls-2" x1="227.57" y1="237.06" x2="220.26" y2="228.95"/>
    <line class="cls-2" x1="237.06" y1="227.57" x2="228.95" y2="220.26"/>
    <line class="cls-2" x1="245.51" y1="217.13" x2="236.68" y2="210.72"/>
    <line class="cls-2" x1="252.83" y1="205.87" x2="243.37" y2="200.41"/>
    <line class="cls-2" x1="258.92" y1="193.91" x2="248.95" y2="189.47"/>
    <line class="cls-2" x1="263.74" y1="181.37" x2="253.35" y2="178"/>
    <line class="cls-2" x1="267.21" y1="168.4" x2="256.53" y2="166.13"/>
    <line class="cls-2" x1="269.31" y1="155.14" x2="258.45" y2="154"/>
    <line class="cls-2" x1="270.01" y1="141.73" x2="259.1" y2="141.73"/>
    <line class="cls-2" x1="269.31" y1="128.32" x2="258.45" y2="129.46"/>
    <line class="cls-2" x1="267.21" y1="115.06" x2="256.53" y2="117.33"/>
    <line class="cls-2" x1="263.74" y1="102.09" x2="253.35" y2="105.46"/>
    <line class="cls-2" x1="258.92" y1="89.56" x2="248.95" y2="94"/>
    <line class="cls-2" x1="252.83" y1="77.59" x2="243.37" y2="83.05"/>
    <line class="cls-2" x1="245.51" y1="66.33" x2="236.68" y2="72.75"/>
    <line class="cls-2" x1="237.06" y1="55.9" x2="228.95" y2="63.2"/>
    <line class="cls-2" x1="227.57" y1="46.4" x2="220.26" y2="54.51"/>
    <line class="cls-2" x1="217.13" y1="37.95" x2="210.72" y2="46.78"/>
    <line class="cls-2" x1="205.87" y1="30.64" x2="200.41" y2="40.09"/>
    <line class="cls-2" x1="193.91" y1="24.54" x2="189.47" y2="34.52"/>
    <line class="cls-2" x1="181.37" y1="19.73" x2="178" y2="30.11"/>
    <line class="cls-2" x1="168.4" y1="16.25" x2="166.13" y2="26.93"/>
    <line class="cls-2" x1="155.14" y1="14.15" x2="154" y2="25.01"/>
  </g>
  <g id="hour">
    <line class="cls-3" x1="141.73" y1="11.79" x2="141.73" y2="26.03"/>
    <line class="cls-3" x1="76.76" y1="29.2" x2="83.88" y2="41.53"/>
    <line class="cls-3" x1="29.2" y1="76.76" x2="41.53" y2="83.88"/>
    <line class="cls-3" x1="11.79" y1="141.73" x2="26.03" y2="141.73"/>
    <line class="cls-3" x1="29.2" y1="206.7" x2="41.53" y2="199.58"/>
    <line class="cls-3" x1="76.76" y1="254.26" x2="83.88" y2="241.94"/>
    <line class="cls-3" x1="141.73" y1="271.67" x2="141.73" y2="257.44"/>
    <line class="cls-3" x1="206.7" y1="254.26" x2="199.58" y2="241.94"/>
    <line class="cls-3" x1="254.26" y1="206.7" x2="241.94" y2="199.58"/>
    <line class="cls-3" x1="271.67" y1="141.73" x2="257.44" y2="141.73"/>
    <line class="cls-3" x1="254.26" y1="76.76" x2="241.94" y2="83.88"/>
    <line class="cls-3" x1="206.7" y1="29.2" x2="199.58" y2="41.53"/>
  </g>
</svg>